<svg xmlns="http://www.w3.org/2000/svg" class="iconAbove" viewBox="0 0 300 300" data-v-fde0c5aa=""><!----><defs data-v-fde0c5aa=""><!----></defs><rect class="logo-background-square" fill="#232323" x="0" y="0" width="300px" height="300px" data-v-fde0c5aa=""/><defs data-v-fde0c5aa=""><!----></defs><g id="182f78cb-37bf-4fc1-8f2d-76853f97dc7f" fill="#ffffff" transform="matrix(2.21503, 0, 0, 2.21503, 19.9778, 180.763)" data-v-fde0c5aa=""><path d="M 4.96 6.13 L 4.96 6.13 L 4.96 6.13 Q 5.24 6.54 5.37 6.97 L 5.37 6.97 L 5.37 6.97 Q 5.5 7.41 5.54 7.8 L 5.54 7.8 L 5.54 7.8 Q 5.59 8.13 5.51 8.52 L 5.51 8.52 L 5.51 8.52 Q 5.43 8.9 5.3 9.24 L 5.3 9.24 L 5.3 9.24 Q 5.17 9.58 5 9.84 L 5 9.84 L 5 9.84 Q 4.84 10.11 4.72 10.21 L 4.72 10.21 L 4.72 10.21 Q 4.63 10.28 4.55 10.34 L 4.55 10.34 L 4.55 10.34 Q 4.47 10.4 4.4 10.46 L 4.4 10.46 L 4.4 10.46 Q 4.07 10.7 3.8 10.86 L 3.8 10.86 L 3.8 10.86 Q 3.53 11.02 3.16 11.12 L 3.16 11.12 L 3.16 11.12 Q 2.93 11.19 2.71 11.21 L 2.71 11.21 L 2.71 11.21 Q 2.49 11.23 2.28 11.23 L 2.28 11.23 L 2.27 11.23 L 2.09 11.23 L 2.09 11.23 Q 1.88 11.2 1.67 11.16 L 1.67 11.16 L 1.67 11.16 Q 1.47 11.12 1.27 11.03 L 1.27 11.03 L 1.27 11.03 Q 1.26 11.03 1.25 11.04 L 1.25 11.04 L 1.25 11.04 Q 1.25 11.05 1.23 11.05 L 1.23 11.05 L 1.23 11.05 Q 1.16 11.06 1.11 11.07 L 1.11 11.07 L 1.11 11.07 Q 1.06 11.07 1.02 11.07 L 1.02 11.07 L 1.02 11.07 Q 0.7 11.07 0.53 10.96 L 0.53 10.96 L 0.53 10.96 Q 0.35 10.84 0.28 10.7 L 0.28 10.7 L 0.28 10.7 Q 0.15 10.5 0.1 9.91 L 0.1 9.91 L 0.1 9.91 Q 0.01 9.31 0.01 7.27 L 0.01 7.27 L 0.01 7.27 Q 0.03 7.13 0.04 6.99 L 0.04 6.99 L 0.04 6.99 Q 0.04 6.86 0.04 6.72 L 0.04 6.72 L 0.04 6.72 Q 0.04 6.64 0.04 6.56 L 0.04 6.56 L 0.04 6.56 Q 0.04 6.48 0.03 6.4 L 0.03 6.4 L 0.03 6.4 Q 0.06 6.33 0.06 6.26 L 0.06 6.26 L 0.06 6.26 Q 0.06 6.2 0.06 6.13 L 0.06 6.13 L 0.06 6.12 L 0.06 6.12 Q 0.04 5.57 0.07 4.82 L 0.07 4.82 L 0.07 4.82 Q 0.1 4.07 0.15 3.12 L 0.15 3.12 L 0.15 3.12 Q 0.18 2.59 0.21 2.13 L 0.21 2.13 L 0.21 2.13 Q 0.24 1.67 0.25 1.41 L 0.25 1.41 L 0.25 1.41 Q 0.25 1.15 0.28 0.85 L 0.28 0.85 L 0.28 0.85 Q 0.31 0.56 0.28 0.28 L 0.28 0.28 L 0.34 -0.36 L 0.34 -0.36 Q 0.34 -0.43 0.39 -0.49 L 0.39 -0.49 L 0.39 -0.49 Q 0.64 -0.71 1.01 -0.71 L 1.01 -0.71 L 1.08 -0.71 L 1.08 -0.71 Q 1.57 -0.69 1.72 -0.29 L 1.72 -0.29 L 1.72 -0.29 Q 1.79 -0.34 1.86 -0.38 L 1.86 -0.38 L 1.86 -0.38 Q 1.93 -0.42 2 -0.45 L 2 -0.45 L 2 -0.45 Q 2.67 -0.76 3.4 -0.74 L 3.4 -0.74 L 3.4 -0.74 Q 4.1 -0.73 4.89 -0.36 L 4.89 -0.36 L 4.9 -0.36 L 4.9 -0.36 Q 5.45 -0.06 5.7 0.48 L 5.7 0.48 L 5.7 0.48 Q 5.95 1.01 5.98 1.64 L 5.98 1.64 L 5.98 1.64 Q 6.01 2.09 5.92 2.71 L 5.92 2.71 L 5.92 2.71 Q 5.82 3.33 5.45 4.1 L 5.45 4.1 L 5.45 4.1 Q 5.4 4.2 5.36 4.28 L 5.36 4.28 L 5.36 4.28 Q 5.31 4.37 5.25 4.47 L 5.25 4.47 L 5.25 4.47 Q 4.86 5.11 4.33 5.54 L 4.33 5.54 L 4.33 5.54 Q 4.49 5.68 4.66 5.82 L 4.66 5.82 L 4.66 5.82 Q 4.82 5.95 4.96 6.13 Z M 3.85 9.52 L 3.85 9.52 L 3.85 9.52 Q 3.98 9.38 4.09 9.19 L 4.09 9.19 L 4.09 9.19 Q 4.21 9 4.29 8.76 L 4.29 8.76 L 4.29 8.76 Q 4.37 8.51 4.38 8.19 L 4.38 8.19 L 4.38 8.19 Q 4.4 7.87 4.34 7.46 L 4.34 7.46 L 4.34 7.46 Q 4.26 7.01 4.02 6.7 L 4.02 6.7 L 4.02 6.7 Q 3.78 6.38 3.54 6.15 L 3.54 6.15 L 3.54 6.15 Q 3.51 6.13 3.46 6.08 L 3.46 6.08 L 3.46 6.08 Q 3.23 6.17 3.09 6.22 L 3.09 6.22 L 3.09 6.22 Q 2.94 6.27 2.81 6.29 L 2.81 6.29 L 2.81 6.29 Q 2.69 6.31 2.55 6.31 L 2.55 6.31 L 2.55 6.31 Q 2.41 6.3 2.2 6.29 L 2.2 6.29 L 2.2 6.29 Q 2.07 6.29 1.91 6.24 L 1.91 6.24 L 1.91 6.24 Q 1.75 6.19 1.62 6.1 L 1.62 6.1 L 1.62 6.1 Q 1.48 6.01 1.39 5.87 L 1.39 5.87 L 1.39 5.87 Q 1.3 5.73 1.32 5.52 L 1.32 5.52 L 1.32 5.52 Q 1.33 5.32 1.46 5.13 L 1.46 5.13 L 1.46 5.13 Q 1.6 4.94 1.85 4.86 L 1.85 4.86 L 1.85 4.86 Q 2.25 4.72 2.63 4.77 L 2.63 4.77 L 2.63 4.77 Q 3.01 4.82 3.46 5.01 L 3.46 5.01 L 3.46 5.01 Q 3.49 5 3.54 4.94 L 3.54 4.94 L 3.54 4.94 Q 4.2 4.31 4.62 2.8 L 4.62 2.8 L 4.62 2.8 Q 4.66 2.65 4.71 2.42 L 4.71 2.42 L 4.71 2.42 Q 4.76 2.2 4.79 1.97 L 4.79 1.97 L 4.79 1.97 Q 4.82 1.76 4.8 1.6 L 4.8 1.6 L 4.8 1.6 Q 4.79 1.44 4.76 1.29 L 4.76 1.29 L 4.76 1.29 Q 4.63 0.52 4.17 0.27 L 4.17 0.27 L 4.17 0.27 Q 3.32 -0.2 2.39 0.36 L 2.39 0.36 L 2.39 0.36 Q 2.03 0.59 1.64 0.98 L 1.64 0.98 L 1.64 0.98 Q 1.62 0.99 1.62 1.01 L 1.62 1.01 L 1.62 1.01 Q 1.46 1.67 1.3 3.72 L 1.3 3.72 L 1.3 3.72 Q 1.23 4.51 1.2 5.06 L 1.2 5.06 L 1.2 5.06 Q 1.18 5.61 1.16 5.96 L 1.16 5.96 L 1.16 5.96 Q 1.16 6.1 1.16 6.24 L 1.16 6.24 L 1.16 6.24 Q 1.15 6.37 1.15 6.51 L 1.15 6.51 L 1.15 6.51 Q 1.13 6.59 1.13 6.67 L 1.13 6.67 L 1.13 6.67 Q 1.13 6.75 1.13 6.82 L 1.13 6.82 L 1.15 6.82 L 1.15 6.82 Q 1.12 6.97 1.12 7.12 L 1.12 7.12 L 1.12 7.12 Q 1.12 7.27 1.11 7.42 L 1.11 7.42 L 1.11 7.42 Q 1.11 7.53 1.11 7.62 L 1.11 7.62 L 1.11 7.62 Q 1.11 7.71 1.12 7.83 L 1.12 7.83 L 1.12 7.83 Q 1.12 7.81 1.11 7.81 L 1.11 7.81 L 1.11 7.81 Q 1.08 8.48 1.07 8.74 L 1.07 8.74 L 1.07 8.74 Q 1.06 9 1.06 9.04 L 1.06 9.04 L 1.06 9.04 Q 1.06 9.32 1.08 9.55 L 1.08 9.55 L 1.08 9.55 Q 1.11 9.79 1.13 9.95 L 1.13 9.95 L 1.13 9.95 Q 1.48 10.22 1.85 10.3 L 1.85 10.3 L 1.85 10.3 Q 1.92 10.33 2.07 10.34 L 2.07 10.34 L 2.07 10.34 Q 2.23 10.35 2.31 10.33 L 2.31 10.33 L 2.31 10.33 Q 2.53 10.32 2.79 10.22 L 2.79 10.22 L 2.79 10.22 Q 3.08 10.11 3.35 9.93 L 3.35 9.93 L 3.35 9.93 Q 3.63 9.76 3.85 9.52 Z M 7.83 9.66 L 7.83 9.66 L 7.83 9.66 Q 7.46 10.44 6.93 10.44 L 6.93 10.44 L 6.93 10.44 Q 6.75 10.44 6.53 10.35 L 6.53 10.35 L 6.53 10.35 Q 6.31 10.25 6.12 9.93 L 6.12 9.93 L 6.12 9.93 Q 5.99 9.69 5.92 9.4 L 5.92 9.4 L 5.92 9.4 Q 5.85 9.11 5.85 8.75 L 5.85 8.75 L 5.85 8.75 Q 5.85 8.44 5.98 7.07 L 5.98 7.07 L 5.98 7.07 Q 6.05 6.4 6.08 5.99 L 6.08 5.99 L 6.08 5.99 Q 6.1 5.57 6.1 5.43 L 6.1 5.43 L 6.1 5.43 Q 6.1 5.29 6.1 5.22 L 6.1 5.22 L 6.1 5.22 Q 6.1 5.15 6.15 5.12 L 6.15 5.12 L 6.15 5.12 Q 6.19 5.1 6.29 5.11 L 6.29 5.11 L 6.29 5.11 Q 6.4 5.12 6.61 5.17 L 6.61 5.17 L 6.61 5.17 Q 7 5.24 7.11 5.35 L 7.11 5.35 L 7.11 5.35 Q 7.21 5.46 7.21 5.54 L 7.21 5.54 L 7.21 5.54 Q 7.21 5.59 7.19 5.67 L 7.19 5.67 L 7.19 5.67 Q 7.17 5.75 7.14 5.85 L 7.14 5.85 L 7.14 5.85 Q 7.11 5.95 7.09 6.03 L 7.09 6.03 L 7.09 6.03 Q 7.07 6.12 7.07 6.15 L 7.07 6.15 L 7.07 6.15 Q 7.04 6.26 6.99 6.55 L 6.99 6.55 L 6.99 6.55 Q 6.94 6.85 6.87 7.17 L 6.87 7.17 L 6.87 7.17 Q 6.79 7.62 6.76 7.99 L 6.76 7.99 L 6.76 7.99 Q 6.72 8.36 6.72 8.78 L 6.72 8.78 L 6.72 8.78 Q 6.72 8.85 6.73 8.97 L 6.73 8.97 L 6.73 8.97 Q 6.73 9.1 6.76 9.23 L 6.76 9.23 L 6.76 9.23 Q 6.78 9.37 6.83 9.46 L 6.83 9.46 L 6.83 9.46 Q 6.87 9.56 6.96 9.58 L 6.96 9.58 L 6.96 9.58 Q 6.99 9.56 7.07 9.44 L 7.07 9.44 L 7.07 9.44 Q 7.15 9.32 7.29 8.96 L 7.29 8.96 L 7.29 8.96 Q 7.32 8.88 7.49 8.5 L 7.49 8.5 L 7.49 8.5 Q 7.66 8.12 7.87 7.45 L 7.87 7.45 L 7.87 7.45 Q 7.94 7.22 8.05 6.9 L 8.05 6.9 L 8.05 6.9 Q 8.16 6.58 8.29 6.13 L 8.29 6.13 L 8.29 6.13 Q 8.3 6.08 8.33 5.99 L 8.33 5.99 L 8.33 5.99 Q 8.36 5.89 8.4 5.81 L 8.4 5.81 L 8.4 5.81 Q 8.44 5.73 8.51 5.67 L 8.51 5.67 L 8.51 5.67 Q 8.58 5.61 8.69 5.61 L 8.69 5.61 L 8.69 5.61 Q 8.74 5.61 8.8 5.68 L 8.8 5.68 L 8.8 5.68 Q 8.86 5.74 8.86 6.03 L 8.86 6.03 L 8.86 6.03 Q 8.86 6.1 8.85 6.22 L 8.85 6.22 L 8.85 6.22 Q 8.83 6.34 8.78 6.59 L 8.78 6.59 L 8.78 6.59 Q 8.72 6.83 8.62 7.21 L 8.62 7.21 L 8.62 7.21 Q 8.51 7.59 8.33 8.18 L 8.33 8.18 L 8.33 8.18 Q 8.13 8.81 8.02 9.16 L 8.02 9.16 L 8.02 9.16 Q 7.9 9.52 7.83 9.66 Z M 6.96 4.55 L 6.96 4.55 L 6.96 4.55 Q 6.59 4.55 6.38 4.27 L 6.38 4.27 L 6.38 4.27 Q 6.16 4 6.16 3.72 L 6.16 3.72 L 6.16 3.72 Q 6.16 3.49 6.38 3.26 L 6.38 3.26 L 6.38 3.26 Q 6.64 3.04 6.83 3.04 L 6.83 3.04 L 6.83 3.04 Q 7.17 3.04 7.35 3.23 L 7.35 3.23 L 7.35 3.23 Q 7.53 3.43 7.53 3.79 L 7.53 3.79 L 7.53 3.79 Q 7.53 4.05 7.47 4.2 L 7.47 4.2 L 7.47 4.2 Q 7.41 4.35 7.31 4.43 L 7.31 4.43 L 7.31 4.43 Q 7.21 4.51 7.11 4.53 L 7.11 4.53 L 7.11 4.53 Q 7.01 4.55 6.96 4.55 Z M 12.67 5.57 L 12.67 5.57 L 12.67 5.57 Q 12.78 5.57 12.89 5.66 L 12.89 5.66 L 12.89 5.66 Q 12.99 5.74 12.99 5.95 L 12.99 5.95 L 12.99 5.95 Q 12.99 6.36 12.85 6.79 L 12.85 6.79 L 12.85 6.79 Q 12.7 7.32 12.54 7.85 L 12.54 7.85 L 12.54 7.85 Q 12.38 8.37 12.21 8.9 L 12.21 8.9 L 12.21 8.92 L 12.21 8.92 Q 11.65 10.46 10.96 10.46 L 10.96 10.46 L 10.96 10.46 Q 10.7 10.46 10.37 10.3 L 10.37 10.3 L 10.37 10.3 Q 10.05 10.15 9.83 9.63 L 9.83 9.63 L 9.83 9.63 Q 9.83 9.62 9.81 9.59 L 9.81 9.59 L 9.81 9.59 Q 9.8 9.56 9.77 9.46 L 9.77 9.46 L 9.77 9.46 Q 9.74 9.37 9.7 9.18 L 9.7 9.18 L 9.7 9.18 Q 9.66 8.99 9.58 8.67 L 9.58 8.67 L 9.58 8.67 Q 9.42 8.75 9.11 8.96 L 9.11 8.96 L 9.11 8.96 Q 9.1 9.11 9.09 9.31 L 9.09 9.31 L 9.09 9.31 Q 9.07 9.51 9.04 9.73 L 9.04 9.73 L 9.04 9.73 Q 9.14 10.04 9.14 10.25 L 9.14 10.25 L 9.14 10.25 Q 9.14 10.44 9.02 10.56 L 9.02 10.56 L 9.02 10.56 Q 8.9 10.67 8.71 10.67 L 8.71 10.67 L 8.71 10.67 Q 8.47 10.67 8.36 10.42 L 8.36 10.42 L 8.36 10.42 Q 8.25 10.16 8.18 9.86 L 8.18 9.86 L 8.18 9.86 Q 8.15 9.69 8.13 9.48 L 8.13 9.48 L 8.13 9.48 Q 8.12 9.27 8.12 8.99 L 8.12 8.99 L 8.12 8.99 Q 8.12 8.48 8.2 7.5 L 8.2 7.5 L 8.2 7.5 Q 8.27 6.51 8.43 5.04 L 8.43 5.04 L 8.43 5.04 Q 8.74 2.09 8.76 1.01 L 8.76 1.01 L 8.76 1.01 Q 8.69 0.71 8.76 0.43 L 8.76 0.43 L 8.76 0.42 L 8.76 0.42 Q 8.83 0.11 8.99 0.04 L 8.99 0.04 L 8.99 0.04 Q 9.14 -0.04 9.25 -0.04 L 9.25 -0.04 L 9.25 -0.04 Q 9.55 -0.04 9.74 0.21 L 9.74 0.21 L 9.74 0.21 Q 9.93 0.41 9.93 0.71 L 9.93 0.71 L 9.93 0.71 Q 9.93 0.91 9.84 1.34 L 9.84 1.34 L 9.84 1.34 Q 9.76 1.78 9.6 2.48 L 9.6 2.48 L 9.6 2.48 Q 9.6 2.51 9.59 2.59 L 9.59 2.59 L 9.59 2.59 Q 9.58 2.67 9.55 2.86 L 9.55 2.86 L 9.55 2.86 Q 9.52 3.04 9.48 3.34 L 9.48 3.34 L 9.48 3.34 Q 9.44 3.64 9.37 4.1 L 9.37 4.1 L 9.37 4.1 Q 9.3 4.68 9.23 5.19 L 9.23 5.19 L 9.23 5.19 Q 9.17 5.71 9.13 6.2 L 9.13 6.2 L 9.13 6.2 Q 9.2 6.03 9.3 5.83 L 9.3 5.83 L 9.3 5.83 Q 9.39 5.63 9.51 5.39 L 9.51 5.39 L 9.51 5.39 Q 9.98 4.41 10.51 4.41 L 10.51 4.41 L 10.51 4.41 Q 10.88 4.41 11.19 4.69 L 11.19 4.69 L 11.19 4.69 Q 11.47 4.97 11.47 5.38 L 11.47 5.38 L 11.47 5.38 Q 11.47 6.03 11.07 6.78 L 11.07 6.78 L 11.06 6.79 L 10.42 7.81 L 10.42 7.81 Q 10.4 7.88 10.4 7.99 L 10.4 7.99 L 10.4 7.99 Q 10.39 8.09 10.39 8.2 L 10.39 8.2 L 10.39 8.2 Q 10.39 8.75 10.54 9.18 L 10.54 9.18 L 10.54 9.18 Q 10.68 9.59 10.91 9.59 L 10.91 9.59 L 10.91 9.59 Q 10.92 9.59 10.96 9.58 L 10.96 9.58 L 10.96 9.58 Q 11 9.56 11.07 9.49 L 11.07 9.49 L 11.07 9.49 Q 11.14 9.42 11.24 9.28 L 11.24 9.28 L 11.24 9.28 Q 11.33 9.13 11.44 8.86 L 11.44 8.86 L 11.44 8.86 Q 11.56 8.54 11.75 7.95 L 11.75 7.95 L 11.75 7.95 Q 11.93 7.36 12.17 6.52 L 12.17 6.52 L 12.17 6.52 Q 12.19 6.41 12.21 6.3 L 12.21 6.3 L 12.21 6.3 Q 12.22 6.19 12.25 6.08 L 12.25 6.08 L 12.26 6.05 L 12.26 6.05 Q 12.28 6.01 12.3 5.93 L 12.3 5.93 L 12.3 5.93 Q 12.32 5.85 12.37 5.77 L 12.37 5.77 L 12.37 5.77 Q 12.42 5.68 12.49 5.63 L 12.49 5.63 L 12.49 5.63 Q 12.56 5.57 12.67 5.57 Z M 9.97 7.08 L 9.97 7.08 L 9.97 7.08 Q 10.6 6.08 10.6 5.29 L 10.6 5.29 L 10.6 5.29 Q 10.6 5.24 10.59 5.21 L 10.59 5.21 L 10.59 5.21 Q 10.58 5.19 10.58 5.18 L 10.58 5.18 L 10.57 5.18 L 10.57 5.18 Q 10.54 5.18 10.47 5.25 L 10.47 5.25 L 10.47 5.25 Q 10.39 5.32 10.26 5.54 L 10.26 5.54 L 10.26 5.54 Q 10.21 5.66 10.09 5.9 L 10.09 5.9 L 10.09 5.9 Q 9.98 6.15 9.83 6.55 L 9.83 6.55 L 9.83 6.55 Q 9.63 7.06 9.51 7.38 L 9.51 7.38 L 9.51 7.38 Q 9.39 7.71 9.34 7.91 L 9.34 7.91 L 9.34 7.91 Q 9.45 7.81 9.6 7.62 L 9.6 7.62 L 9.6 7.62 Q 9.76 7.43 9.97 7.08 Z M 15.74 5.49 L 15.74 5.49 L 15.74 5.49 Q 15.92 5.49 15.9 5.59 L 15.9 5.59 L 15.9 5.59 Q 15.89 5.7 15.89 5.87 L 15.89 5.87 L 15.89 5.87 Q 15.89 5.89 15.88 5.96 L 15.88 5.96 L 15.88 5.96 Q 15.88 6.02 15.85 6.13 L 15.85 6.13 L 15.85 6.13 Q 15.82 6.24 15.78 6.44 L 15.78 6.44 L 15.78 6.44 Q 15.74 6.64 15.65 6.93 L 15.65 6.93 L 15.65 6.93 Q 15.39 8.01 15.08 8.83 L 15.08 8.83 L 15.08 8.83 Q 14.92 9.24 14.78 9.53 L 14.78 9.53 L 14.78 9.53 Q 14.63 9.81 14.49 10.01 L 14.49 10.01 L 14.49 10.01 Q 14.11 10.54 13.54 10.54 L 13.54 10.54 L 13.54 10.54 Q 12.89 10.54 12.43 9.87 L 12.43 9.87 L 12.43 9.87 Q 12.01 9.24 12.01 8.34 L 12.01 8.34 L 12.01 8.34 Q 12.01 7.62 12.12 6.87 L 12.12 6.87 L 12.12 6.87 Q 12.22 6.13 12.39 5.54 L 12.39 5.54 L 12.39 5.54 Q 12.45 5.33 12.52 5.11 L 12.52 5.11 L 12.52 5.11 Q 12.6 4.89 12.71 4.7 L 12.71 4.7 L 12.71 4.7 Q 12.82 4.51 12.96 4.39 L 12.96 4.39 L 12.96 4.39 Q 13.1 4.27 13.3 4.27 L 13.3 4.27 L 13.3 4.27 Q 13.69 4.27 14.03 4.56 L 14.03 4.56 L 14.03 4.56 Q 14.18 4.72 14.28 4.94 L 14.28 4.94 L 14.28 4.94 Q 14.38 5.17 14.38 5.33 L 14.38 5.33 L 14.38 5.33 Q 14.38 5.61 14.32 5.95 L 14.32 5.95 L 14.32 5.95 Q 14.27 6.29 14.18 6.62 L 14.18 6.62 L 14.18 6.62 Q 14.1 6.94 13.99 7.22 L 13.99 7.22 L 13.99 7.22 Q 13.89 7.49 13.78 7.66 L 13.78 7.66 L 13.78 7.66 Q 13.71 7.78 13.58 7.91 L 13.58 7.91 L 13.58 7.91 Q 13.45 8.04 13.32 8.11 L 13.32 8.11 L 13.32 8.11 Q 13.19 8.19 13.07 8.2 L 13.07 8.2 L 13.07 8.2 Q 12.95 8.2 12.87 8.09 L 12.87 8.09 L 12.87 8.09 Q 12.84 8.2 12.85 8.39 L 12.85 8.39 L 12.85 8.39 Q 12.87 8.57 12.89 8.74 L 12.89 8.74 L 12.89 8.74 Q 12.92 8.92 12.96 9.07 L 12.96 9.07 L 12.96 9.07 Q 13.01 9.23 13.03 9.3 L 13.03 9.3 L 13.03 9.3 Q 13.15 9.53 13.33 9.65 L 13.33 9.65 L 13.33 9.65 Q 13.51 9.77 13.58 9.77 L 13.58 9.77 L 13.58 9.77 Q 13.72 9.77 13.85 9.56 L 13.85 9.56 L 13.85 9.56 Q 13.99 9.35 14.2 9.03 L 14.2 9.03 L 14.2 9.03 Q 14.43 8.65 14.73 7.97 L 14.73 7.97 L 14.73 7.97 Q 15.02 7.28 15.26 6.5 L 15.26 6.5 L 15.26 6.5 Q 15.3 6.34 15.34 6.2 L 15.34 6.2 L 15.34 6.2 Q 15.37 6.05 15.41 5.89 L 15.41 5.89 L 15.41 5.89 Q 15.48 5.49 15.74 5.49 Z M 13.54 5.19 L 13.54 5.19 L 13.54 5.19 Q 13.43 5.5 13.34 5.75 L 13.34 5.75 L 13.34 5.75 Q 13.24 5.99 13.16 6.22 L 13.16 6.22 L 13.16 6.22 Q 13.08 6.45 13.02 6.69 L 13.02 6.69 L 13.02 6.69 Q 12.96 6.93 12.95 7.22 L 12.95 7.22 L 12.95 7.22 Q 13.13 7.21 13.27 6.97 L 13.27 6.97 L 13.27 6.97 Q 13.4 6.73 13.44 6.54 L 13.44 6.54 L 13.44 6.54 Q 13.5 6.26 13.56 5.97 L 13.56 5.97 L 13.56 5.97 Q 13.62 5.68 13.62 5.38 L 13.62 5.38 L 13.62 5.38 Q 13.62 5.31 13.6 5.2 L 13.6 5.2 L 13.6 5.2 Q 13.58 5.1 13.54 5.19 Z M 24.18 10.3 L 24.18 10.3 L 24.18 10.3 Q 24.29 10.37 24.32 10.49 L 24.32 10.49 L 24.32 10.49 Q 24.33 10.61 24.28 10.71 L 24.28 10.71 L 24.28 10.71 Q 24.23 10.79 24.09 10.83 L 24.09 10.83 L 24.09 10.83 Q 23.94 10.86 23.76 10.87 L 23.76 10.87 L 23.76 10.87 Q 23.58 10.88 23.41 10.86 L 23.41 10.86 L 23.41 10.86 Q 23.25 10.84 23.18 10.79 L 23.18 10.79 L 23.18 10.79 Q 22.9 10.64 22.63 10.39 L 22.63 10.39 L 22.63 10.39 Q 22.36 10.15 22.11 9.79 L 22.11 9.79 L 22.11 9.79 Q 21.78 9.32 21.59 8.95 L 21.59 8.95 L 21.59 8.95 Q 21.41 8.57 21.28 8.17 L 21.28 8.17 L 21.28 8.17 Q 21.15 7.77 21.05 7.31 L 21.05 7.31 L 21.05 7.31 Q 20.94 6.86 20.78 6.27 L 20.78 6.27 L 20.78 6.27 Q 20.58 6.19 20.42 6.03 L 20.42 6.03 L 20.42 6.03 Q 20.26 5.87 20.29 5.59 L 20.29 5.59 L 20.29 5.59 Q 20.3 5.39 20.43 5.2 L 20.43 5.2 L 20.43 5.2 Q 20.57 5.01 20.82 4.93 L 20.82 4.93 L 20.82 4.93 Q 20.87 4.9 20.97 4.89 L 20.97 4.89 L 20.97 4.89 Q 21.07 4.89 21.18 4.89 L 21.18 4.89 L 21.18 4.89 Q 21.28 4.89 21.38 4.9 L 21.38 4.9 L 21.38 4.9 Q 21.48 4.91 21.53 4.94 L 21.53 4.94 L 21.53 4.94 Q 21.74 5.04 21.83 5.18 L 21.83 5.18 L 21.83 5.18 Q 21.87 5.28 21.98 5.28 L 21.98 5.28 L 21.98 5.28 Q 22.08 5.31 22.25 5.2 L 22.25 5.2 L 22.25 5.2 Q 22.41 5.1 22.51 5.01 L 22.51 5.01 L 22.51 5.01 Q 22.85 4.7 23.11 4.17 L 23.11 4.17 L 23.11 4.17 Q 23.38 3.63 23.59 2.87 L 23.59 2.87 L 23.59 2.87 Q 23.63 2.72 23.68 2.49 L 23.68 2.49 L 23.68 2.49 Q 23.73 2.27 23.76 2.04 L 23.76 2.04 L 23.76 2.04 Q 23.79 1.83 23.77 1.67 L 23.77 1.67 L 23.77 1.67 Q 23.76 1.51 23.73 1.36 L 23.73 1.36 L 23.73 1.36 Q 23.6 0.59 23.14 0.34 L 23.14 0.34 L 23.14 0.34 Q 22.29 -0.13 21.36 0.43 L 21.36 0.43 L 21.36 0.43 Q 21 0.66 20.61 1.05 L 20.61 1.05 L 20.61 1.05 Q 20.59 1.06 20.59 1.08 L 20.59 1.08 L 20.59 1.08 Q 20.43 1.74 20.27 3.79 L 20.27 3.79 L 20.27 3.79 Q 20.2 4.58 20.17 5.13 L 20.17 5.13 L 20.17 5.13 Q 20.15 5.68 20.13 6.03 L 20.13 6.03 L 20.13 6.03 Q 20.13 6.19 20.12 6.64 L 20.12 6.64 L 20.12 6.64 Q 20.1 7.1 20.09 7.6 L 20.09 7.6 L 20.09 7.6 Q 20.08 8.11 20.05 8.54 L 20.05 8.54 L 20.05 8.54 Q 20.03 8.97 20.03 9.11 L 20.03 9.11 L 20.03 9.11 Q 20.03 9.25 20.04 9.44 L 20.04 9.44 L 20.04 9.44 Q 20.05 9.63 20.07 9.81 L 20.07 9.81 L 20.07 9.81 Q 20.09 10 20.12 10.15 L 20.12 10.15 L 20.12 10.15 Q 20.15 10.3 20.17 10.37 L 20.17 10.37 L 20.17 10.37 Q 20.23 10.53 20.29 10.63 L 20.29 10.63 L 20.29 10.63 Q 20.34 10.74 20.37 10.88 L 20.37 10.88 L 20.37 10.88 Q 20.4 10.93 20.34 11.02 L 20.34 11.02 L 20.34 11.02 Q 20.27 11.1 20.2 11.12 L 20.2 11.12 L 20.2 11.12 Q 20.13 11.13 20.08 11.14 L 20.08 11.14 L 20.08 11.14 Q 20.03 11.14 19.99 11.14 L 19.99 11.14 L 19.99 11.14 Q 19.67 11.14 19.5 11.03 L 19.5 11.03 L 19.5 11.03 Q 19.32 10.91 19.25 10.77 L 19.25 10.77 L 19.25 10.77 Q 19.12 10.57 19.07 9.98 L 19.07 9.98 L 19.07 9.98 Q 18.98 9.38 18.98 7.34 L 18.98 7.34 L 18.98 7.34 Q 18.98 7.24 18.99 6.93 L 18.99 6.93 L 18.99 6.93 Q 19 6.62 19 6.21 L 19 6.21 L 19 6.21 Q 19.01 5.8 19.03 5.32 L 19.03 5.32 L 19.03 5.32 Q 19.04 4.84 19.05 4.42 L 19.05 4.42 L 19.05 4.42 Q 19.07 3.99 19.08 3.66 L 19.08 3.66 L 19.08 3.66 Q 19.1 3.33 19.12 3.19 L 19.12 3.19 L 19.22 1.48 L 19.22 1.48 Q 19.22 1.22 19.25 0.92 L 19.25 0.92 L 19.25 0.92 Q 19.28 0.63 19.25 0.35 L 19.25 0.35 L 19.31 -0.29 L 19.31 -0.29 Q 19.31 -0.36 19.36 -0.42 L 19.36 -0.42 L 19.36 -0.42 Q 19.61 -0.64 19.98 -0.64 L 19.98 -0.64 L 20.05 -0.64 L 20.05 -0.64 Q 20.54 -0.62 20.69 -0.22 L 20.69 -0.22 L 20.69 -0.22 Q 20.76 -0.27 20.83 -0.31 L 20.83 -0.31 L 20.83 -0.31 Q 20.9 -0.35 20.97 -0.38 L 20.97 -0.38 L 20.97 -0.38 Q 21.64 -0.69 22.37 -0.67 L 22.37 -0.67 L 22.37 -0.67 Q 23.07 -0.66 23.86 -0.29 L 23.86 -0.29 L 23.87 -0.29 L 23.87 -0.29 Q 24.42 0.01 24.67 0.55 L 24.67 0.55 L 24.67 0.55 Q 24.92 1.08 24.95 1.71 L 24.95 1.71 L 24.95 1.71 Q 24.98 2.16 24.89 2.78 L 24.89 2.78 L 24.89 2.78 Q 24.79 3.4 24.42 4.17 L 24.42 4.17 L 24.42 4.17 Q 24.37 4.27 24.32 4.35 L 24.32 4.35 L 24.32 4.35 Q 24.28 4.44 24.22 4.54 L 24.22 4.54 L 24.22 4.54 Q 24.05 4.84 23.81 5.12 L 23.81 5.12 L 23.81 5.12 Q 23.56 5.4 23.26 5.63 L 23.26 5.63 L 23.26 5.63 Q 22.96 5.87 22.64 6.04 L 22.64 6.04 L 22.64 6.04 Q 22.32 6.22 22.01 6.3 L 22.01 6.3 L 22.01 6.3 Q 22.01 6.41 22.02 6.51 L 22.02 6.51 L 22.02 6.51 Q 22.02 6.61 22.04 6.72 L 22.04 6.72 L 22.04 6.72 Q 22.09 7.46 22.23 8.03 L 22.23 8.03 L 22.23 8.03 Q 22.36 8.6 22.72 9.17 L 22.72 9.17 L 22.72 9.17 Q 23.17 9.93 23.6 10.15 L 23.6 10.15 L 23.6 10.15 Q 23.62 10.16 23.67 10.18 L 23.67 10.18 L 23.67 10.18 Q 23.72 10.19 23.84 10.21 L 23.84 10.21 L 23.84 10.21 Q 24 10.23 24.07 10.26 L 24.07 10.26 L 24.07 10.26 Q 24.15 10.28 24.18 10.3 Z M 27.83 5.49 L 27.83 5.49 L 27.83 5.49 Q 28.01 5.49 28 5.59 L 28 5.59 L 28 5.59 Q 27.99 5.7 27.99 5.87 L 27.99 5.87 L 27.99 5.87 Q 27.99 5.89 27.98 5.96 L 27.98 5.96 L 27.98 5.96 Q 27.97 6.02 27.94 6.13 L 27.94 6.13 L 27.94 6.13 Q 27.92 6.24 27.87 6.44 L 27.87 6.44 L 27.87 6.44 Q 27.83 6.64 27.75 6.93 L 27.75 6.93 L 27.75 6.93 Q 27.48 8.01 27.17 8.83 L 27.17 8.83 L 27.17 8.83 Q 27.02 9.24 26.87 9.53 L 26.87 9.53 L 26.87 9.53 Q 26.73 9.81 26.59 10.01 L 26.59 10.01 L 26.59 10.01 Q 26.21 10.54 25.63 10.54 L 25.63 10.54 L 25.63 10.54 Q 24.99 10.54 24.53 9.87 L 24.53 9.87 L 24.53 9.87 Q 24.11 9.24 24.11 8.34 L 24.11 8.34 L 24.11 8.34 Q 24.11 7.62 24.21 6.87 L 24.21 6.87 L 24.21 6.87 Q 24.32 6.13 24.49 5.54 L 24.49 5.54 L 24.49 5.54 Q 24.54 5.33 24.62 5.11 L 24.62 5.11 L 24.62 5.11 Q 24.7 4.89 24.81 4.7 L 24.81 4.7 L 24.81 4.7 Q 24.92 4.51 25.06 4.39 L 25.06 4.39 L 25.06 4.39 Q 25.2 4.27 25.4 4.27 L 25.4 4.27 L 25.4 4.27 Q 25.79 4.27 26.12 4.56 L 26.12 4.56 L 26.12 4.56 Q 26.28 4.72 26.38 4.94 L 26.38 4.94 L 26.38 4.94 Q 26.47 5.17 26.47 5.33 L 26.47 5.33 L 26.47 5.33 Q 26.47 5.61 26.42 5.95 L 26.42 5.95 L 26.42 5.95 Q 26.36 6.29 26.28 6.62 L 26.28 6.62 L 26.28 6.62 Q 26.19 6.94 26.09 7.22 L 26.09 7.22 L 26.09 7.22 Q 25.98 7.49 25.87 7.66 L 25.87 7.66 L 25.87 7.66 Q 25.8 7.78 25.68 7.91 L 25.68 7.91 L 25.68 7.91 Q 25.55 8.04 25.42 8.11 L 25.42 8.11 L 25.42 8.11 Q 25.28 8.19 25.16 8.2 L 25.16 8.2 L 25.16 8.2 Q 25.05 8.2 24.96 8.09 L 24.96 8.09 L 24.96 8.09 Q 24.93 8.2 24.95 8.39 L 24.95 8.39 L 24.95 8.39 Q 24.96 8.57 24.99 8.74 L 24.99 8.74 L 24.99 8.74 Q 25.02 8.92 25.06 9.07 L 25.06 9.07 L 25.06 9.07 Q 25.1 9.23 25.13 9.3 L 25.13 9.3 L 25.13 9.3 Q 25.24 9.53 25.42 9.65 L 25.42 9.65 L 25.42 9.65 Q 25.61 9.77 25.68 9.77 L 25.68 9.77 L 25.68 9.77 Q 25.82 9.77 25.95 9.56 L 25.95 9.56 L 25.95 9.56 Q 26.08 9.35 26.29 9.03 L 26.29 9.03 L 26.29 9.03 Q 26.53 8.65 26.82 7.97 L 26.82 7.97 L 26.82 7.97 Q 27.12 7.28 27.36 6.5 L 27.36 6.5 L 27.36 6.5 Q 27.4 6.34 27.43 6.2 L 27.43 6.2 L 27.43 6.2 Q 27.47 6.05 27.51 5.89 L 27.51 5.89 L 27.51 5.89 Q 27.58 5.49 27.83 5.49 Z M 25.63 5.19 L 25.63 5.19 L 25.63 5.19 Q 25.52 5.5 25.43 5.75 L 25.43 5.75 L 25.43 5.75 Q 25.34 5.99 25.26 6.22 L 25.26 6.22 L 25.26 6.22 Q 25.17 6.45 25.12 6.69 L 25.12 6.69 L 25.12 6.69 Q 25.06 6.93 25.05 7.22 L 25.05 7.22 L 25.05 7.22 Q 25.23 7.21 25.36 6.97 L 25.36 6.97 L 25.36 6.97 Q 25.49 6.73 25.54 6.54 L 25.54 6.54 L 25.54 6.54 Q 25.59 6.26 25.66 5.97 L 25.66 5.97 L 25.66 5.97 Q 25.72 5.68 25.72 5.38 L 25.72 5.38 L 25.72 5.38 Q 25.72 5.31 25.7 5.2 L 25.7 5.2 L 25.7 5.2 Q 25.68 5.1 25.63 5.19 Z M 31.92 5.6 L 31.92 5.6 L 31.92 5.6 Q 31.98 5.6 32.11 5.66 L 32.11 5.66 L 32.11 5.66 Q 32.24 5.73 32.24 6.02 L 32.24 6.02 L 32.24 6.02 Q 32.24 6.48 31.7 8.12 L 31.7 8.12 L 31.7 8.12 Q 31.35 9.2 31.04 9.8 L 31.04 9.8 L 31.04 9.8 Q 30.7 10.44 30.35 10.44 L 30.35 10.44 L 30.35 10.44 Q 29.61 10.44 29.4 9.21 L 29.4 9.21 L 29.4 9.21 Q 29.36 9.02 29.32 8.68 L 29.32 8.68 L 29.32 8.68 Q 29.29 8.34 29.26 7.85 L 29.26 7.85 L 29.26 7.85 Q 29.18 8.2 29.06 8.63 L 29.06 8.63 L 29.06 8.63 Q 28.95 9.06 28.81 9.58 L 28.81 9.58 L 28.81 9.58 Q 28.78 9.65 28.74 9.78 L 28.74 9.78 L 28.74 9.78 Q 28.7 9.91 28.63 10.04 L 28.63 10.04 L 28.63 10.04 Q 28.56 10.18 28.44 10.28 L 28.44 10.28 L 28.44 10.28 Q 28.32 10.37 28.15 10.37 L 28.15 10.37 L 28.15 10.37 Q 28.07 10.37 27.95 10.35 L 27.95 10.35 L 27.95 10.35 Q 27.83 10.32 27.72 10.23 L 27.72 10.23 L 27.72 10.23 Q 27.61 10.15 27.52 10 L 27.52 10 L 27.52 10 Q 27.43 9.84 27.38 9.58 L 27.38 9.58 L 27.38 9.56 L 27.38 9.56 Q 27.37 9.28 27.36 8.99 L 27.36 8.99 L 27.36 8.99 Q 27.34 8.71 27.33 8.43 L 27.33 8.43 L 27.33 8.43 Q 27.29 7.81 27.33 7.21 L 27.33 7.21 L 27.33 7.21 Q 27.34 6.99 27.35 6.87 L 27.35 6.87 L 27.35 6.87 Q 27.36 6.76 27.37 6.71 L 27.37 6.71 L 27.26 6.47 L 27.26 6.47 Q 27.23 6.41 27.23 6.37 L 27.23 6.37 L 27.23 6.37 Q 27.26 6.06 27.28 5.94 L 27.28 5.94 L 27.28 5.94 Q 27.3 5.82 27.33 5.77 L 27.33 5.77 L 27.33 5.77 Q 27.45 5.4 27.89 5.4 L 27.89 5.4 L 27.89 5.4 Q 28.13 5.4 28.25 5.53 L 28.25 5.53 L 28.25 5.53 Q 28.38 5.66 28.38 5.87 L 28.38 5.87 L 28.38 5.87 Q 28.38 5.89 28.36 5.96 L 28.36 5.96 L 28.36 5.96 Q 28.35 6.02 28.28 6.27 L 28.28 6.27 L 28.28 6.27 Q 28.24 6.41 28.21 6.52 L 28.21 6.52 L 28.21 6.52 Q 28.18 6.64 28.18 6.75 L 28.18 6.75 L 28.18 6.75 Q 28.18 6.9 28.18 7.13 L 28.18 7.13 L 28.18 7.13 Q 28.18 7.35 28.17 7.63 L 28.17 7.63 L 28.17 7.63 Q 28.17 7.91 28.16 8.09 L 28.16 8.09 L 28.16 8.09 Q 28.15 8.27 28.15 8.36 L 28.15 8.36 L 28.15 8.36 Q 28.15 8.83 28.2 9.02 L 28.2 9.02 L 28.2 9 L 28.2 9 Q 28.31 8.6 28.38 8.32 L 28.38 8.32 L 28.38 8.32 Q 28.45 8.04 28.52 7.85 L 28.52 7.85 L 28.52 7.85 Q 28.94 6.55 29.02 5.57 L 29.02 5.57 L 29.02 5.57 Q 29.06 4.83 29.32 4.68 L 29.32 4.68 L 29.32 4.68 Q 29.37 4.63 29.44 4.63 L 29.44 4.63 L 29.44 4.63 Q 30.03 4.68 30.21 4.89 L 30.21 4.89 L 30.21 4.89 Q 30.39 5.11 30.39 5.32 L 30.39 5.32 L 30.39 5.36 L 30.39 5.36 Q 30.38 5.39 30.35 5.59 L 30.35 5.59 L 30.35 5.59 Q 30.32 5.78 30.23 6.36 L 30.23 6.36 L 30.23 6.36 Q 30.16 6.86 30.11 7.29 L 30.11 7.29 L 30.11 7.29 Q 30.07 7.71 30.07 8.08 L 30.07 8.08 L 30.07 8.08 Q 30.07 8.54 30.1 8.82 L 30.1 8.82 L 30.1 8.82 Q 30.13 9.1 30.17 9.25 L 30.17 9.25 L 30.17 9.25 Q 30.21 9.39 30.25 9.44 L 30.25 9.44 L 30.25 9.44 Q 30.28 9.49 30.3 9.49 L 30.3 9.49 L 30.3 9.49 Q 30.31 9.48 30.36 9.43 L 30.36 9.43 L 30.36 9.43 Q 30.41 9.38 30.49 9.23 L 30.49 9.23 L 30.49 9.23 Q 30.58 9.07 30.7 8.79 L 30.7 8.79 L 30.7 8.79 Q 30.83 8.51 30.98 8.05 L 30.98 8.05 L 30.98 8.05 Q 31.14 7.56 31.26 7.1 L 31.26 7.1 L 31.26 7.1 Q 31.39 6.64 31.49 6.22 L 31.49 6.22 L 31.49 6.22 Q 31.54 5.98 31.63 5.79 L 31.63 5.79 L 31.63 5.79 Q 31.72 5.6 31.92 5.6 Z M 34.64 2.66 L 34.64 2.66 L 34.64 2.66 Q 34.83 2.69 34.83 2.87 L 34.83 2.87 L 34.83 2.97 L 34.83 2.97 Q 34.83 3.04 34.79 3.09 L 34.79 3.09 L 34.79 3.09 Q 34.75 3.15 34.61 3.21 L 34.61 3.21 L 34.61 3.21 Q 34.47 3.26 33.98 3.35 L 33.98 3.35 L 33.98 3.35 Q 33.66 3.42 33.45 3.43 L 33.45 3.43 L 33.45 3.43 Q 33.24 3.44 33.08 3.44 L 33.08 3.44 L 32.65 3.47 L 32.65 3.47 Q 32.62 3.67 32.59 4.09 L 32.59 4.09 L 32.59 4.09 Q 32.55 4.52 32.48 5.15 L 32.48 5.15 L 32.48 5.15 Q 32.42 5.68 32.4 6.02 L 32.4 6.02 L 32.4 6.02 Q 32.37 6.36 32.35 6.55 L 32.35 6.55 L 32.35 6.55 Q 32.33 6.75 32.32 6.83 L 32.32 6.83 L 32.32 6.83 Q 32.31 6.92 32.31 6.94 L 32.31 6.94 L 32.31 6.94 Q 32.31 7.62 32.32 8.03 L 32.32 8.03 L 32.32 8.03 Q 32.33 8.44 32.34 8.6 L 32.34 8.6 L 32.34 8.6 Q 32.38 9.04 32.46 9.18 L 32.46 9.18 L 32.46 9.18 Q 32.54 9.32 32.56 9.32 L 32.56 9.32 L 32.56 9.32 Q 32.62 9.3 32.68 9.23 L 32.68 9.23 L 32.68 9.23 Q 32.73 9.16 32.81 9.03 L 32.81 9.03 L 32.81 9.03 Q 32.89 8.9 33 8.67 L 33 8.67 L 33 8.67 Q 33.15 8.29 33.33 7.71 L 33.33 7.71 L 33.33 7.71 Q 33.5 7.13 33.68 6.36 L 33.68 6.36 L 33.68 6.36 Q 33.73 6.17 33.77 6.05 L 33.77 6.05 L 33.77 6.05 Q 33.81 5.92 33.84 5.82 L 33.84 5.82 L 33.84 5.82 Q 33.87 5.75 33.93 5.64 L 33.93 5.64 L 33.93 5.64 Q 33.99 5.53 34.13 5.53 L 34.13 5.53 L 34.13 5.53 Q 34.26 5.53 34.37 5.62 L 34.37 5.62 L 34.37 5.62 Q 34.48 5.71 34.48 5.95 L 34.48 5.95 L 34.48 5.95 Q 34.48 6.22 34.36 6.75 L 34.36 6.75 L 34.36 6.75 Q 34.23 7.29 33.95 8.13 L 33.95 8.13 L 33.95 8.13 Q 33.59 9.21 33.24 9.72 L 33.24 9.72 L 33.24 9.72 Q 32.9 10.23 32.52 10.23 L 32.52 10.23 L 32.52 10.23 Q 31.99 10.23 31.67 9.42 L 31.67 9.42 L 31.67 9.42 Q 31.39 8.69 31.39 7.62 L 31.39 7.62 L 31.39 7.62 Q 31.39 7.27 31.48 6.27 L 31.48 6.27 L 31.48 6.27 Q 31.57 5.28 31.77 3.5 L 31.77 3.5 L 31.77 3.5 Q 31.64 3.53 31.53 3.49 L 31.53 3.49 L 31.53 3.49 Q 31.42 3.46 31.37 3.43 L 31.37 3.43 L 31.37 3.43 Q 31.35 3.42 31.3 3.37 L 31.3 3.37 L 31.3 3.37 Q 31.26 3.33 31.15 3.29 L 31.15 3.29 L 31.15 3.29 Q 30.95 3.22 30.91 3.12 L 30.91 3.12 L 30.91 3.12 Q 30.86 3.01 30.86 2.94 L 30.86 2.94 L 30.86 2.94 Q 30.86 2.9 30.91 2.79 L 30.91 2.79 L 30.91 2.79 Q 30.95 2.69 31.23 2.63 L 31.23 2.63 L 31.23 2.63 Q 31.32 2.62 31.37 2.61 L 31.37 2.61 L 31.37 2.61 Q 31.43 2.6 31.49 2.6 L 31.49 2.6 L 31.49 2.6 Q 31.54 2.59 31.62 2.58 L 31.62 2.58 L 31.62 2.58 Q 31.7 2.58 31.82 2.56 L 31.82 2.56 L 31.82 2.56 Q 31.84 2.41 31.85 2.18 L 31.85 2.18 L 31.85 2.18 Q 31.86 1.96 31.88 1.67 L 31.88 1.67 L 31.81 1.43 L 31.81 1.43 Q 31.81 1.34 31.82 1.3 L 31.82 1.3 L 31.82 1.3 Q 31.93 1.08 32.17 1.08 L 32.17 1.08 L 32.17 1.08 Q 32.42 1.08 32.89 1.37 L 32.89 1.37 L 32.89 1.37 Q 32.97 1.44 32.97 1.54 L 32.97 1.54 L 32.97 1.86 L 32.97 1.9 L 32.97 1.9 Q 32.94 2.06 32.91 2.22 L 32.91 2.22 L 32.91 2.22 Q 32.87 2.38 32.83 2.58 L 32.83 2.58 L 32.83 2.58 Q 32.93 2.58 32.95 2.58 L 32.95 2.58 L 32.95 2.58 Q 32.97 2.58 32.98 2.58 L 32.98 2.58 L 32.98 2.58 Q 33 2.59 33.05 2.6 L 33.05 2.6 L 33.05 2.6 Q 33.11 2.6 33.31 2.6 L 33.31 2.6 L 33.31 2.6 Q 33.49 2.6 33.59 2.61 L 33.59 2.61 L 33.59 2.61 Q 33.7 2.62 33.82 2.63 L 33.82 2.63 L 33.82 2.63 Q 33.94 2.63 34.12 2.64 L 34.12 2.64 L 34.12 2.64 Q 34.3 2.65 34.64 2.66 Z M 38.09 5.49 L 38.09 5.49 L 38.09 5.49 Q 38.16 5.5 38.16 5.56 L 38.16 5.56 L 38.16 5.56 Q 38.15 5.63 38.15 5.92 L 38.15 5.92 L 38.15 5.92 Q 38.15 6.2 38.04 6.78 L 38.04 6.78 L 38.04 6.78 Q 37.93 7.35 37.65 8.25 L 37.65 8.25 L 37.65 8.25 Q 37.49 8.74 37.31 9.11 L 37.31 9.11 L 37.31 9.11 Q 37.13 9.49 36.99 9.74 L 36.99 9.74 L 36.99 9.74 Q 36.88 9.94 36.72 10.14 L 36.72 10.14 L 36.72 10.14 Q 36.55 10.33 36.32 10.33 L 36.32 10.33 L 36.32 10.33 Q 35.87 10.33 35.62 9.97 L 35.62 9.97 L 35.62 9.97 Q 35.57 9.9 35.53 9.82 L 35.53 9.82 L 35.53 9.82 Q 35.48 9.74 35.42 9.63 L 35.42 9.63 L 35.42 9.63 Q 35.06 10.64 34.4 10.64 L 34.4 10.64 L 34.4 10.64 Q 34.08 10.64 33.81 10.4 L 33.81 10.4 L 33.81 10.4 Q 33.31 9.88 33.35 8.23 L 33.35 8.23 L 33.35 8.23 Q 33.36 7.97 33.42 7.61 L 33.42 7.61 L 33.42 7.61 Q 33.47 7.25 33.56 6.85 L 33.56 6.85 L 33.56 6.85 Q 33.61 6.62 33.69 6.36 L 33.69 6.36 L 33.69 6.36 Q 33.77 6.09 33.86 5.82 L 33.86 5.82 L 33.86 5.82 Q 33.95 5.56 34.03 5.33 L 34.03 5.33 L 34.03 5.33 Q 34.12 5.11 34.19 4.97 L 34.19 4.97 L 34.19 4.97 Q 34.29 4.79 34.43 4.6 L 34.43 4.6 L 34.43 4.6 Q 34.58 4.41 34.79 4.41 L 34.79 4.41 L 34.79 4.41 Q 34.94 4.41 35.13 4.49 L 35.13 4.49 L 35.13 4.49 Q 35.31 4.56 35.47 4.7 L 35.47 4.7 L 35.47 4.7 Q 35.63 4.83 35.75 5.01 L 35.75 5.01 L 35.75 5.01 Q 35.87 5.19 35.9 5.39 L 35.9 5.39 L 35.9 5.39 Q 35.97 5.84 35.91 6.02 L 35.91 6.02 L 35.91 6.02 Q 35.85 6.2 35.8 6.29 L 35.8 6.29 L 35.8 6.29 Q 35.77 6.31 35.72 6.36 L 35.72 6.36 L 35.72 6.36 Q 35.67 6.4 35.61 6.42 L 35.61 6.42 L 35.61 6.42 Q 35.55 6.44 35.5 6.42 L 35.5 6.42 L 35.5 6.42 Q 35.45 6.4 35.43 6.3 L 35.43 6.3 L 35.43 6.3 Q 35.39 5.96 35.29 5.72 L 35.29 5.72 L 35.29 5.72 Q 35.2 5.47 35.01 5.45 L 35.01 5.45 L 35.01 5.45 Q 34.97 5.52 34.87 5.78 L 34.87 5.78 L 34.87 5.78 Q 34.78 6.05 34.59 6.69 L 34.59 6.69 L 34.59 6.69 Q 34.41 7.34 34.3 7.9 L 34.3 7.9 L 34.3 7.9 Q 34.22 8.57 34.22 9.28 L 34.22 9.28 L 34.22 9.28 Q 34.22 9.51 34.31 9.7 L 34.31 9.7 L 34.31 9.7 Q 34.34 9.76 34.41 9.79 L 34.41 9.79 L 34.41 9.79 Q 34.48 9.83 34.51 9.83 L 34.51 9.83 L 34.51 9.83 Q 34.57 9.83 34.69 9.59 L 34.69 9.59 L 34.69 9.59 Q 34.82 9.35 34.97 8.9 L 34.97 8.9 L 34.97 8.9 Q 35.13 8.5 35.17 8.15 L 35.17 8.15 L 35.17 8.15 Q 35.21 7.8 35.28 7.43 L 35.28 7.43 L 35.28 7.43 Q 35.31 7.32 35.32 7.22 L 35.32 7.22 L 35.32 7.22 Q 35.34 7.13 35.35 7.01 L 35.35 7.01 L 35.35 7.01 Q 35.36 6.9 35.34 6.86 L 35.34 6.86 L 35.34 6.86 Q 35.32 6.82 35.36 6.76 L 35.36 6.76 L 35.36 6.76 Q 35.41 6.71 35.46 6.71 L 35.46 6.71 L 35.46 6.71 Q 35.5 6.71 35.53 6.71 L 35.53 6.71 L 35.53 6.71 Q 35.56 6.71 35.6 6.71 L 35.6 6.71 L 35.6 6.71 Q 35.64 6.72 35.67 6.72 L 35.67 6.72 L 35.67 6.72 Q 35.73 6.72 35.77 6.75 L 35.77 6.75 L 35.77 6.75 Q 35.81 6.79 35.87 6.8 L 35.87 6.8 L 35.87 6.8 Q 35.92 6.82 35.96 6.84 L 35.96 6.84 L 35.96 6.84 Q 35.99 6.86 36.04 6.89 L 36.04 6.89 L 36.04 6.89 Q 36.09 6.9 36.15 6.93 L 36.15 6.93 L 36.15 6.93 Q 36.19 6.96 36.23 7 L 36.23 7 L 36.23 7 Q 36.26 7.04 36.23 7.1 L 36.23 7.1 L 36.23 7.1 Q 36.19 7.22 36.16 7.36 L 36.16 7.36 L 36.16 7.36 Q 36.12 7.5 36.09 7.64 L 36.09 7.64 L 36.09 7.64 Q 36.06 7.84 36.04 8.06 L 36.04 8.06 L 36.04 8.06 Q 36.02 8.29 35.99 8.5 L 35.99 8.5 L 35.99 8.5 Q 35.97 8.88 36.08 9.25 L 36.08 9.25 L 36.08 9.25 Q 36.13 9.41 36.17 9.46 L 36.17 9.46 L 36.17 9.46 Q 36.2 9.51 36.22 9.52 L 36.22 9.52 L 36.22 9.52 Q 36.23 9.52 36.26 9.48 L 36.26 9.48 L 36.26 9.48 Q 36.29 9.45 36.34 9.36 L 36.34 9.36 L 36.34 9.36 Q 36.4 9.27 36.49 9.09 L 36.49 9.09 L 36.49 9.09 Q 36.58 8.92 36.72 8.64 L 36.72 8.64 L 36.72 8.64 Q 37 8.06 37.14 7.59 L 37.14 7.59 L 37.14 7.59 Q 37.27 7.13 37.35 6.87 L 37.35 6.87 L 37.7 5.89 L 37.7 5.89 Q 37.73 5.78 37.81 5.62 L 37.81 5.62 L 37.81 5.62 Q 37.88 5.46 38.09 5.49 Z M 40.92 5.45 L 40.92 5.45 L 40.92 5.45 Q 40.94 5.45 40.99 5.45 L 40.99 5.45 L 40.99 5.45 Q 41.05 5.46 41.11 5.5 L 41.11 5.5 L 41.11 5.5 Q 41.17 5.54 41.22 5.63 L 41.22 5.63 L 41.22 5.63 Q 41.26 5.71 41.26 5.87 L 41.26 5.87 L 41.26 5.87 Q 41.26 6.19 41.1 6.78 L 41.1 6.78 L 41.1 6.78 Q 40.95 7.36 40.64 8.26 L 40.64 8.26 L 40.64 8.26 Q 40.26 9.41 39.88 9.95 L 39.88 9.95 L 39.88 9.95 Q 39.49 10.49 39.07 10.49 L 39.07 10.49 L 39.07 10.49 Q 38.42 10.49 37.91 9.74 L 37.91 9.74 L 37.91 9.74 Q 37.35 8.89 37.35 7.39 L 37.35 7.39 L 37.35 7.39 Q 37.35 6.72 37.43 5.84 L 37.43 5.84 L 37.43 5.84 Q 37.51 4.97 37.66 3.88 L 37.66 3.88 L 37.66 3.88 Q 37.98 1.78 38.29 0.84 L 38.29 0.84 L 38.29 0.84 Q 38.33 0.29 38.47 0.03 L 38.47 0.03 L 38.47 0.03 Q 38.58 -0.21 38.74 -0.28 L 38.74 -0.28 L 38.74 -0.28 Q 38.89 -0.35 39 -0.35 L 39 -0.35 L 39 -0.35 Q 39.2 -0.35 39.41 -0.28 L 39.41 -0.28 L 39.41 -0.28 Q 39.62 -0.21 39.8 -0.02 L 39.8 -0.02 L 39.8 -0.02 Q 39.97 0.17 40.08 0.5 L 40.08 0.5 L 40.08 0.5 Q 40.19 0.83 40.19 1.36 L 40.19 1.36 L 40.19 1.36 Q 40.19 2.67 39.69 4.35 L 39.69 4.35 L 39.69 4.35 Q 39.19 6.06 38.51 7.08 L 38.51 7.08 L 38.51 7.08 Q 38.49 7.13 38.46 7.17 L 38.46 7.17 L 38.46 7.17 Q 38.43 7.22 38.36 7.29 L 38.36 7.29 L 38.36 7.29 Q 38.26 7.42 38.23 7.49 L 38.23 7.49 L 38.23 7.49 Q 38.21 7.55 38.21 7.62 L 38.21 7.62 L 38.21 7.62 Q 38.21 8.62 38.65 9.2 L 38.65 9.2 L 38.65 9.2 Q 38.84 9.44 38.94 9.5 L 38.94 9.5 L 38.94 9.5 Q 39.05 9.56 39.1 9.56 L 39.1 9.56 L 39.1 9.56 Q 39.16 9.55 39.21 9.48 L 39.21 9.48 L 39.21 9.48 Q 39.27 9.41 39.35 9.29 L 39.35 9.29 L 39.35 9.29 Q 39.44 9.17 39.55 8.93 L 39.55 8.93 L 39.55 8.93 Q 39.9 8.19 40.32 6.76 L 40.32 6.76 L 40.32 6.76 Q 40.38 6.54 40.43 6.33 L 40.43 6.33 L 40.43 6.33 Q 40.47 6.12 40.53 5.91 L 40.53 5.91 L 40.53 5.91 Q 40.56 5.8 40.64 5.62 L 40.64 5.62 L 40.64 5.62 Q 40.73 5.45 40.92 5.45 Z M 39.28 1.06 L 39.28 1.06 L 39.28 1.06 Q 38.86 2.49 38.61 3.65 L 38.61 3.65 L 38.61 3.65 Q 38.35 4.8 38.26 5.71 L 38.26 5.71 L 38.26 5.71 Q 38.42 5.36 38.57 4.95 L 38.57 4.95 L 38.57 4.95 Q 38.72 4.54 38.88 4.05 L 38.88 4.05 L 38.88 4.05 Q 39.33 2.51 39.33 1.78 L 39.33 1.78 L 39.33 1.78 Q 39.33 1.32 39.28 1.06 Z M 53.89 11.13 L 53.89 11.13 L 53.89 11.13 Q 53.93 11.21 53.89 11.3 L 53.89 11.3 L 53.89 11.3 Q 53.8 11.49 53.69 11.61 L 53.69 11.61 L 53.69 11.61 Q 53.55 11.75 53.37 11.75 L 53.37 11.75 L 53.37 11.75 Q 52.89 11.75 52.54 11.24 L 52.54 11.24 L 52.54 11.24 Q 52.23 10.79 51.98 9.9 L 51.98 9.9 L 51.98 9.9 Q 51.52 8.26 51.52 5.95 L 51.52 5.95 L 51.52 5.95 Q 51.52 5.4 51.59 4.82 L 51.59 4.82 L 51.59 4.82 Q 51.66 4.24 51.69 3.61 L 51.69 3.61 L 51.69 3.58 L 51.69 3.58 Q 51.58 4.3 51.38 5.06 L 51.38 5.06 L 51.38 5.06 Q 51.18 5.82 50.99 6.78 L 50.99 6.78 L 50.99 6.78 Q 50.88 7.21 50.8 7.53 L 50.8 7.53 L 50.8 7.53 Q 50.72 7.84 50.64 8.12 L 50.64 8.12 L 50.64 8.12 Q 50.55 8.4 50.44 8.69 L 50.44 8.69 L 50.44 8.69 Q 50.32 8.99 50.12 9.37 L 50.12 9.37 L 50.12 9.37 Q 50.01 9.6 49.88 9.77 L 49.88 9.77 L 49.88 9.77 Q 49.74 9.94 49.62 10.05 L 49.62 10.05 L 49.62 10.05 Q 49.32 10.32 49.06 10.32 L 49.06 10.32 L 49.06 10.32 Q 48.72 10.32 48.41 10.05 L 48.41 10.05 L 48.41 10.05 Q 48.15 9.83 47.91 9.35 L 47.91 9.35 L 47.91 9.35 Q 47.68 8.9 47.56 8.27 L 47.56 8.27 L 47.56 8.27 Q 47.43 7.64 47.33 6.72 L 47.33 6.72 L 47.33 6.71 L 47.33 6.71 Q 47.14 5.15 46.91 3.51 L 46.91 3.51 L 46.91 3.51 Q 46.9 3.53 46.9 3.54 L 46.9 3.54 L 46.9 3.54 Q 46.9 3.56 46.89 3.57 L 46.89 3.57 L 46.89 3.57 Q 46.89 3.58 46.89 3.6 L 46.89 3.6 L 46.89 3.6 Q 46.77 3.89 46.64 4.3 L 46.64 4.3 L 46.64 4.3 Q 46.51 4.7 46.35 5.24 L 46.35 5.24 L 46.35 5.24 Q 46.2 5.67 46.07 6.07 L 46.07 6.07 L 46.07 6.07 Q 45.93 6.47 45.81 6.83 L 45.81 6.83 L 45.81 6.83 Q 45.71 7.11 45.63 7.37 L 45.63 7.37 L 45.63 7.37 Q 45.56 7.63 45.49 7.88 L 45.49 7.88 L 45.49 7.88 Q 45.4 8.23 45.31 8.54 L 45.31 8.54 L 45.31 8.54 Q 45.22 8.85 45.26 9.17 L 45.26 9.17 L 45.26 9.17 Q 45.3 9.48 45.39 9.68 L 45.39 9.68 L 45.39 9.68 Q 45.47 9.88 45.57 10.05 L 45.57 10.05 L 45.57 10.05 Q 45.63 10.16 45.65 10.29 L 45.65 10.29 L 45.65 10.29 Q 45.68 10.42 45.65 10.5 L 45.65 10.5 L 45.65 10.5 Q 45.61 10.58 45.49 10.61 L 45.49 10.61 L 45.49 10.61 Q 45.36 10.63 45.11 10.5 L 45.11 10.5 L 45.11 10.5 Q 44.97 10.43 44.86 10.3 L 44.86 10.3 L 44.86 10.3 Q 44.74 10.18 44.66 10.03 L 44.66 10.03 L 44.66 10.03 Q 44.58 9.88 44.53 9.74 L 44.53 9.74 L 44.53 9.74 Q 44.48 9.6 44.45 9.49 L 44.45 9.49 L 44.45 9.49 Q 44.34 9.09 44.41 8.6 L 44.41 8.6 L 44.41 8.6 Q 44.48 8.12 44.63 7.56 L 44.63 7.56 L 44.63 7.56 Q 44.66 7.45 44.74 7.21 L 44.74 7.21 L 44.74 7.21 Q 44.83 6.97 44.91 6.71 L 44.91 6.71 L 44.91 6.71 Q 45 6.45 45.08 6.24 L 45.08 6.24 L 45.08 6.24 Q 45.16 6.02 45.19 5.94 L 45.19 5.94 L 45.19 5.94 Q 45.33 5.57 45.46 5.19 L 45.46 5.19 L 45.46 5.19 Q 45.58 4.8 45.7 4.4 L 45.7 4.4 L 45.7 4.4 Q 46.09 3.09 46.28 2.03 L 46.28 2.03 L 46.28 2.03 Q 46.47 0.97 46.47 0.14 L 46.47 0.14 L 46.47 0.14 Q 46.47 -0.28 46.62 -0.52 L 46.62 -0.52 L 46.62 -0.52 Q 46.82 -0.78 47.15 -0.78 L 47.15 -0.78 L 47.15 -0.78 Q 47.56 -0.78 48.26 -0.25 L 48.26 -0.25 L 48.26 -0.25 Q 48.37 -0.18 48.31 -0.03 L 48.31 -0.03 L 48.31 -0.03 Q 48.29 0.04 48.26 0.18 L 48.26 0.18 L 48.26 0.18 Q 48.23 0.32 48.21 0.58 L 48.21 0.58 L 48.21 0.58 Q 48.19 0.84 48.17 1.23 L 48.17 1.23 L 48.17 1.23 Q 48.16 1.62 48.16 2.18 L 48.16 2.18 L 48.16 2.18 Q 48.16 3.46 48.24 4.6 L 48.24 4.6 L 48.24 4.6 Q 48.33 5.74 48.47 6.75 L 48.47 6.75 L 48.47 6.75 Q 48.55 7.35 48.61 7.77 L 48.61 7.77 L 48.61 7.77 Q 48.66 8.19 48.78 8.58 L 48.78 8.58 L 48.78 8.58 Q 48.83 8.76 48.96 8.93 L 48.96 8.93 L 48.96 8.93 Q 49.08 9.09 49.2 9.1 L 49.2 9.1 L 49.2 9.1 Q 49.2 9.1 49.23 9.07 L 49.23 9.07 L 49.23 9.07 Q 49.27 9.04 49.33 8.97 L 49.33 8.97 L 49.33 8.97 Q 49.39 8.89 49.48 8.74 L 49.48 8.74 L 49.48 8.74 Q 49.57 8.6 49.69 8.36 L 49.69 8.36 L 49.69 8.36 Q 49.87 7.97 50 7.42 L 50 7.42 L 50 7.42 Q 50.13 6.87 50.33 6.1 L 50.33 6.1 L 50.33 6.1 Q 50.68 4.7 50.89 3.54 L 50.89 3.54 L 50.89 3.54 Q 51.1 2.38 51.3 1.4 L 51.3 1.4 L 51.3 1.4 Q 51.31 1.2 51.32 1.07 L 51.32 1.07 L 51.32 1.07 Q 51.32 0.94 51.32 0.83 L 51.32 0.83 L 51.32 0.83 Q 51.32 0.73 51.32 0.63 L 51.32 0.63 L 51.32 0.63 Q 51.32 0.53 51.32 0.39 L 51.32 0.39 L 51.32 0.39 Q 51.32 0.22 51.34 0.1 L 51.34 0.1 L 51.34 0.1 Q 51.37 -0.03 51.39 -0.14 L 51.39 -0.14 L 51.39 -0.14 Q 51.42 -0.22 51.51 -0.36 L 51.51 -0.36 L 51.51 -0.36 Q 51.59 -0.49 51.73 -0.49 L 51.73 -0.49 L 51.73 -0.49 Q 52.16 -0.49 52.44 -0.43 L 52.44 -0.43 L 52.44 -0.43 Q 52.64 -0.41 52.77 -0.37 L 52.77 -0.37 L 52.77 -0.37 Q 52.91 -0.34 53.02 -0.28 L 53.02 -0.28 L 53.02 -0.28 Q 53.19 -0.2 53.25 -0.08 L 53.25 -0.08 L 53.25 -0.08 Q 53.31 0.03 53.33 0.1 L 53.33 0.1 L 53.33 0.1 Q 53.33 0.18 53.31 0.21 L 53.31 0.21 L 53.31 0.21 Q 53.28 0.25 53.24 0.43 L 53.24 0.43 L 53.24 0.43 Q 53.2 0.6 53.13 1.04 L 53.13 1.04 L 53.13 1.04 Q 53.07 1.39 53.02 1.86 L 53.02 1.86 L 53.02 1.86 Q 52.96 2.32 52.89 2.91 L 52.89 2.91 L 52.89 2.91 Q 52.64 5.29 52.64 6.72 L 52.64 6.72 L 52.64 6.72 Q 52.64 8.93 52.93 9.94 L 52.93 9.94 L 52.93 9.94 Q 53.21 10.86 53.76 11.02 L 53.76 11.02 L 53.76 11.02 Q 53.86 11.05 53.89 11.13 Z M 58.11 5.49 L 58.11 5.49 L 58.11 5.49 Q 58.18 5.5 58.18 5.56 L 58.18 5.56 L 58.18 5.56 Q 58.17 5.63 58.17 5.92 L 58.17 5.92 L 58.17 5.92 Q 58.17 6.2 58.06 6.78 L 58.06 6.78 L 58.06 6.78 Q 57.95 7.35 57.67 8.25 L 57.67 8.25 L 57.67 8.25 Q 57.51 8.74 57.33 9.11 L 57.33 9.11 L 57.33 9.11 Q 57.15 9.49 57.01 9.74 L 57.01 9.74 L 57.01 9.74 Q 56.9 9.94 56.74 10.14 L 56.74 10.14 L 56.74 10.14 Q 56.57 10.33 56.34 10.33 L 56.34 10.33 L 56.34 10.33 Q 55.89 10.33 55.64 9.97 L 55.64 9.97 L 55.64 9.97 Q 55.59 9.9 55.55 9.82 L 55.55 9.82 L 55.55 9.82 Q 55.5 9.74 55.44 9.63 L 55.44 9.63 L 55.44 9.63 Q 55.08 10.64 54.42 10.64 L 54.42 10.64 L 54.42 10.64 Q 54.1 10.64 53.83 10.4 L 53.83 10.4 L 53.83 10.4 Q 53.33 9.88 53.37 8.23 L 53.37 8.23 L 53.37 8.23 Q 53.38 7.97 53.44 7.61 L 53.44 7.61 L 53.44 7.61 Q 53.49 7.25 53.58 6.85 L 53.58 6.85 L 53.58 6.85 Q 53.63 6.62 53.71 6.36 L 53.71 6.36 L 53.71 6.36 Q 53.79 6.09 53.88 5.82 L 53.88 5.82 L 53.88 5.82 Q 53.97 5.56 54.05 5.33 L 54.05 5.33 L 54.05 5.33 Q 54.14 5.11 54.21 4.97 L 54.21 4.97 L 54.21 4.97 Q 54.31 4.79 54.45 4.6 L 54.45 4.6 L 54.45 4.6 Q 54.6 4.41 54.81 4.41 L 54.81 4.41 L 54.81 4.41 Q 54.96 4.41 55.15 4.49 L 55.15 4.49 L 55.15 4.49 Q 55.33 4.56 55.49 4.7 L 55.49 4.7 L 55.49 4.7 Q 55.65 4.83 55.77 5.01 L 55.77 5.01 L 55.77 5.01 Q 55.89 5.19 55.92 5.39 L 55.92 5.39 L 55.92 5.39 Q 55.99 5.84 55.93 6.02 L 55.93 6.02 L 55.93 6.02 Q 55.87 6.2 55.82 6.29 L 55.82 6.29 L 55.82 6.29 Q 55.79 6.31 55.74 6.36 L 55.74 6.36 L 55.74 6.36 Q 55.69 6.4 55.63 6.42 L 55.63 6.42 L 55.63 6.42 Q 55.57 6.44 55.52 6.42 L 55.52 6.42 L 55.52 6.42 Q 55.47 6.4 55.45 6.3 L 55.45 6.3 L 55.45 6.3 Q 55.41 5.96 55.31 5.72 L 55.31 5.72 L 55.31 5.72 Q 55.22 5.47 55.03 5.45 L 55.03 5.45 L 55.03 5.45 Q 54.99 5.52 54.89 5.78 L 54.89 5.78 L 54.89 5.78 Q 54.8 6.05 54.61 6.69 L 54.61 6.69 L 54.61 6.69 Q 54.43 7.34 54.32 7.9 L 54.32 7.9 L 54.32 7.9 Q 54.24 8.57 54.24 9.28 L 54.24 9.28 L 54.24 9.28 Q 54.24 9.51 54.33 9.7 L 54.33 9.7 L 54.33 9.7 Q 54.36 9.76 54.43 9.79 L 54.43 9.79 L 54.43 9.79 Q 54.5 9.83 54.53 9.83 L 54.53 9.83 L 54.53 9.83 Q 54.59 9.83 54.71 9.59 L 54.71 9.59 L 54.71 9.59 Q 54.84 9.35 54.99 8.9 L 54.99 8.9 L 54.99 8.9 Q 55.15 8.5 55.19 8.15 L 55.19 8.15 L 55.19 8.15 Q 55.23 7.8 55.3 7.43 L 55.3 7.43 L 55.3 7.43 Q 55.33 7.32 55.34 7.22 L 55.34 7.22 L 55.34 7.22 Q 55.36 7.13 55.37 7.01 L 55.37 7.01 L 55.37 7.01 Q 55.38 6.9 55.36 6.86 L 55.36 6.86 L 55.36 6.86 Q 55.34 6.82 55.38 6.76 L 55.38 6.76 L 55.38 6.76 Q 55.43 6.71 55.48 6.71 L 55.48 6.71 L 55.48 6.71 Q 55.52 6.71 55.55 6.71 L 55.55 6.71 L 55.55 6.71 Q 55.58 6.71 55.62 6.71 L 55.62 6.71 L 55.62 6.71 Q 55.66 6.72 55.69 6.72 L 55.69 6.72 L 55.69 6.72 Q 55.75 6.72 55.79 6.75 L 55.79 6.75 L 55.79 6.75 Q 55.83 6.79 55.89 6.8 L 55.89 6.8 L 55.89 6.8 Q 55.94 6.82 55.98 6.84 L 55.98 6.84 L 55.98 6.84 Q 56.01 6.86 56.06 6.89 L 56.06 6.89 L 56.06 6.89 Q 56.11 6.9 56.17 6.93 L 56.17 6.93 L 56.17 6.93 Q 56.21 6.96 56.25 7 L 56.25 7 L 56.25 7 Q 56.28 7.04 56.25 7.1 L 56.25 7.1 L 56.25 7.1 Q 56.21 7.22 56.18 7.36 L 56.18 7.36 L 56.18 7.36 Q 56.14 7.5 56.11 7.64 L 56.11 7.64 L 56.11 7.64 Q 56.08 7.84 56.06 8.06 L 56.06 8.06 L 56.06 8.06 Q 56.04 8.29 56.01 8.5 L 56.01 8.5 L 56.01 8.5 Q 55.99 8.88 56.1 9.25 L 56.1 9.25 L 56.1 9.25 Q 56.15 9.41 56.19 9.46 L 56.19 9.46 L 56.19 9.46 Q 56.22 9.51 56.24 9.52 L 56.24 9.52 L 56.24 9.52 Q 56.25 9.52 56.28 9.48 L 56.28 9.48 L 56.28 9.48 Q 56.31 9.45 56.36 9.36 L 56.36 9.36 L 56.36 9.36 Q 56.42 9.27 56.51 9.09 L 56.51 9.09 L 56.51 9.09 Q 56.6 8.92 56.74 8.64 L 56.74 8.64 L 56.74 8.64 Q 57.02 8.06 57.16 7.59 L 57.16 7.59 L 57.16 7.59 Q 57.29 7.13 57.37 6.87 L 57.37 6.87 L 57.72 5.89 L 57.72 5.89 Q 57.75 5.78 57.83 5.62 L 57.83 5.62 L 57.83 5.62 Q 57.9 5.46 58.11 5.49 Z M 62.06 5.6 L 62.06 5.6 L 62.06 5.6 Q 62.12 5.6 62.25 5.66 L 62.25 5.66 L 62.25 5.66 Q 62.38 5.73 62.38 6.02 L 62.38 6.02 L 62.38 6.02 Q 62.38 6.48 61.84 8.12 L 61.84 8.12 L 61.84 8.12 Q 61.49 9.2 61.18 9.8 L 61.18 9.8 L 61.18 9.8 Q 60.84 10.44 60.49 10.44 L 60.49 10.44 L 60.49 10.44 Q 59.75 10.44 59.54 9.21 L 59.54 9.21 L 59.54 9.21 Q 59.5 9.02 59.47 8.68 L 59.47 8.68 L 59.47 8.68 Q 59.43 8.34 59.4 7.85 L 59.4 7.85 L 59.4 7.85 Q 59.32 8.2 59.21 8.63 L 59.21 8.63 L 59.21 8.63 Q 59.09 9.06 58.95 9.58 L 58.95 9.58 L 58.95 9.58 Q 58.93 9.65 58.88 9.78 L 58.88 9.78 L 58.88 9.78 Q 58.84 9.91 58.77 10.04 L 58.77 10.04 L 58.77 10.04 Q 58.7 10.18 58.58 10.28 L 58.58 10.28 L 58.58 10.28 Q 58.46 10.37 58.3 10.37 L 58.3 10.37 L 58.3 10.37 Q 58.21 10.37 58.09 10.35 L 58.09 10.35 L 58.09 10.35 Q 57.97 10.32 57.86 10.23 L 57.86 10.23 L 57.86 10.23 Q 57.75 10.15 57.66 10 L 57.66 10 L 57.66 10 Q 57.57 9.84 57.53 9.58 L 57.53 9.58 L 57.53 9.56 L 57.53 9.56 Q 57.51 9.28 57.5 8.99 L 57.5 8.99 L 57.5 8.99 Q 57.48 8.71 57.47 8.43 L 57.47 8.43 L 57.47 8.43 Q 57.43 7.81 57.47 7.21 L 57.47 7.21 L 57.47 7.21 Q 57.48 6.99 57.49 6.87 L 57.49 6.87 L 57.49 6.87 Q 57.5 6.76 57.51 6.71 L 57.51 6.71 L 57.4 6.47 L 57.4 6.47 Q 57.37 6.41 57.37 6.37 L 57.37 6.37 L 57.37 6.37 Q 57.4 6.06 57.42 5.94 L 57.42 5.94 L 57.42 5.94 Q 57.44 5.82 57.47 5.77 L 57.47 5.77 L 57.47 5.77 Q 57.6 5.4 58.03 5.4 L 58.03 5.4 L 58.03 5.4 Q 58.27 5.4 58.39 5.53 L 58.39 5.53 L 58.39 5.53 Q 58.52 5.66 58.52 5.87 L 58.52 5.87 L 58.52 5.87 Q 58.52 5.89 58.51 5.96 L 58.51 5.96 L 58.51 5.96 Q 58.49 6.02 58.42 6.27 L 58.42 6.27 L 58.42 6.27 Q 58.38 6.41 58.35 6.52 L 58.35 6.52 L 58.35 6.52 Q 58.32 6.64 58.32 6.75 L 58.32 6.75 L 58.32 6.75 Q 58.32 6.9 58.32 7.13 L 58.32 7.13 L 58.32 7.13 Q 58.32 7.35 58.31 7.63 L 58.31 7.63 L 58.31 7.63 Q 58.31 7.91 58.3 8.09 L 58.3 8.09 L 58.3 8.09 Q 58.3 8.27 58.3 8.36 L 58.3 8.36 L 58.3 8.36 Q 58.3 8.83 58.34 9.02 L 58.34 9.02 L 58.34 9 L 58.34 9 Q 58.45 8.6 58.52 8.32 L 58.52 8.32 L 58.52 8.32 Q 58.59 8.04 58.66 7.85 L 58.66 7.85 L 58.66 7.85 Q 59.08 6.55 59.16 5.57 L 59.16 5.57 L 59.16 5.57 Q 59.21 4.83 59.46 4.68 L 59.46 4.68 L 59.46 4.68 Q 59.51 4.63 59.58 4.63 L 59.58 4.63 L 59.58 4.63 Q 60.17 4.68 60.35 4.89 L 60.35 4.89 L 60.35 4.89 Q 60.54 5.11 60.54 5.32 L 60.54 5.32 L 60.54 5.36 L 60.54 5.36 Q 60.52 5.39 60.49 5.59 L 60.49 5.59 L 60.49 5.59 Q 60.47 5.78 60.37 6.36 L 60.37 6.36 L 60.37 6.36 Q 60.3 6.86 60.26 7.29 L 60.26 7.29 L 60.26 7.29 Q 60.21 7.71 60.21 8.08 L 60.21 8.08 L 60.21 8.08 Q 60.21 8.54 60.24 8.82 L 60.24 8.82 L 60.24 8.82 Q 60.27 9.1 60.31 9.25 L 60.31 9.25 L 60.31 9.25 Q 60.35 9.39 60.39 9.44 L 60.39 9.44 L 60.39 9.44 Q 60.42 9.49 60.44 9.49 L 60.44 9.49 L 60.44 9.49 Q 60.45 9.48 60.5 9.43 L 60.5 9.43 L 60.5 9.43 Q 60.55 9.38 60.63 9.23 L 60.63 9.23 L 60.63 9.23 Q 60.72 9.07 60.84 8.79 L 60.84 8.79 L 60.84 8.79 Q 60.97 8.51 61.12 8.05 L 61.12 8.05 L 61.12 8.05 Q 61.28 7.56 61.4 7.1 L 61.4 7.1 L 61.4 7.1 Q 61.53 6.64 61.63 6.22 L 61.63 6.22 L 61.63 6.22 Q 61.68 5.98 61.78 5.79 L 61.78 5.79 L 61.78 5.79 Q 61.87 5.6 62.06 5.6 Z M 65.94 5.49 L 65.94 5.49 L 65.94 5.49 Q 66.01 5.5 66 5.56 L 66 5.56 L 66 5.56 Q 66 5.63 66 5.92 L 66 5.92 L 66 5.92 Q 66 6.2 65.88 6.78 L 65.88 6.78 L 65.88 6.78 Q 65.77 7.35 65.49 8.25 L 65.49 8.25 L 65.49 8.25 Q 65.34 8.74 65.16 9.11 L 65.16 9.11 L 65.16 9.11 Q 64.97 9.49 64.83 9.74 L 64.83 9.74 L 64.83 9.74 Q 64.72 9.94 64.56 10.14 L 64.56 10.14 L 64.56 10.14 Q 64.4 10.33 64.16 10.33 L 64.16 10.33 L 64.16 10.33 Q 63.71 10.33 63.46 9.97 L 63.46 9.97 L 63.46 9.97 Q 63.42 9.9 63.37 9.82 L 63.37 9.82 L 63.37 9.82 Q 63.32 9.74 63.27 9.63 L 63.27 9.63 L 63.27 9.63 Q 62.9 10.64 62.24 10.64 L 62.24 10.64 L 62.24 10.64 Q 61.92 10.64 61.66 10.4 L 61.66 10.4 L 61.66 10.4 Q 61.15 9.88 61.19 8.23 L 61.19 8.23 L 61.19 8.23 Q 61.21 7.97 61.26 7.61 L 61.26 7.61 L 61.26 7.61 Q 61.32 7.25 61.4 6.85 L 61.4 6.85 L 61.4 6.85 Q 61.46 6.62 61.54 6.36 L 61.54 6.36 L 61.54 6.36 Q 61.61 6.09 61.71 5.82 L 61.71 5.82 L 61.71 5.82 Q 61.8 5.56 61.88 5.33 L 61.88 5.33 L 61.88 5.33 Q 61.96 5.11 62.03 4.97 L 62.03 4.97 L 62.03 4.97 Q 62.13 4.79 62.28 4.6 L 62.28 4.6 L 62.28 4.6 Q 62.43 4.41 62.64 4.41 L 62.64 4.41 L 62.64 4.41 Q 62.79 4.41 62.97 4.49 L 62.97 4.49 L 62.97 4.49 Q 63.15 4.56 63.32 4.7 L 63.32 4.7 L 63.32 4.7 Q 63.48 4.83 63.6 5.01 L 63.6 5.01 L 63.6 5.01 Q 63.71 5.19 63.74 5.39 L 63.74 5.39 L 63.74 5.39 Q 63.81 5.84 63.76 6.02 L 63.76 6.02 L 63.76 6.02 Q 63.7 6.2 63.64 6.29 L 63.64 6.29 L 63.64 6.29 Q 63.62 6.31 63.57 6.36 L 63.57 6.36 L 63.57 6.36 Q 63.52 6.4 63.46 6.42 L 63.46 6.42 L 63.46 6.42 Q 63.39 6.44 63.34 6.42 L 63.34 6.42 L 63.34 6.42 Q 63.29 6.4 63.28 6.3 L 63.28 6.3 L 63.28 6.3 Q 63.24 5.96 63.14 5.72 L 63.14 5.72 L 63.14 5.72 Q 63.04 5.47 62.86 5.45 L 62.86 5.45 L 62.86 5.45 Q 62.82 5.52 62.72 5.78 L 62.72 5.78 L 62.72 5.78 Q 62.62 6.05 62.44 6.69 L 62.44 6.69 L 62.44 6.69 Q 62.26 7.34 62.15 7.9 L 62.15 7.9 L 62.15 7.9 Q 62.06 8.57 62.06 9.28 L 62.06 9.28 L 62.06 9.28 Q 62.06 9.51 62.16 9.7 L 62.16 9.7 L 62.16 9.7 Q 62.19 9.76 62.26 9.79 L 62.26 9.79 L 62.26 9.79 Q 62.33 9.83 62.36 9.83 L 62.36 9.83 L 62.36 9.83 Q 62.41 9.83 62.54 9.59 L 62.54 9.59 L 62.54 9.59 Q 62.66 9.35 62.82 8.9 L 62.82 8.9 L 62.82 8.9 Q 62.97 8.5 63.01 8.15 L 63.01 8.15 L 63.01 8.15 Q 63.06 7.8 63.13 7.43 L 63.13 7.43 L 63.13 7.43 Q 63.15 7.32 63.17 7.22 L 63.17 7.22 L 63.17 7.22 Q 63.18 7.13 63.2 7.01 L 63.2 7.01 L 63.2 7.01 Q 63.21 6.9 63.19 6.86 L 63.19 6.86 L 63.19 6.86 Q 63.17 6.82 63.21 6.76 L 63.21 6.76 L 63.21 6.76 Q 63.25 6.71 63.3 6.71 L 63.3 6.71 L 63.3 6.71 Q 63.35 6.71 63.38 6.71 L 63.38 6.71 L 63.38 6.71 Q 63.41 6.71 63.45 6.71 L 63.45 6.71 L 63.45 6.71 Q 63.49 6.72 63.52 6.72 L 63.52 6.72 L 63.52 6.72 Q 63.57 6.72 63.62 6.75 L 63.62 6.75 L 63.62 6.75 Q 63.66 6.79 63.71 6.8 L 63.71 6.8 L 63.71 6.8 Q 63.77 6.82 63.81 6.84 L 63.81 6.84 L 63.81 6.84 Q 63.84 6.86 63.88 6.89 L 63.88 6.89 L 63.88 6.89 Q 63.94 6.9 63.99 6.93 L 63.99 6.93 L 63.99 6.93 Q 64.04 6.96 64.07 7 L 64.07 7 L 64.07 7 Q 64.11 7.04 64.08 7.1 L 64.08 7.1 L 64.08 7.1 Q 64.04 7.22 64 7.36 L 64 7.36 L 64 7.36 Q 63.97 7.5 63.94 7.64 L 63.94 7.64 L 63.94 7.64 Q 63.91 7.84 63.89 8.06 L 63.89 8.06 L 63.89 8.06 Q 63.87 8.29 63.84 8.5 L 63.84 8.5 L 63.84 8.5 Q 63.81 8.88 63.92 9.25 L 63.92 9.25 L 63.92 9.25 Q 63.98 9.41 64.02 9.46 L 64.02 9.46 L 64.02 9.46 Q 64.05 9.51 64.06 9.52 L 64.06 9.52 L 64.06 9.52 Q 64.08 9.52 64.11 9.48 L 64.11 9.48 L 64.11 9.48 Q 64.13 9.45 64.19 9.36 L 64.19 9.36 L 64.19 9.36 Q 64.25 9.27 64.34 9.09 L 64.34 9.09 L 64.34 9.09 Q 64.43 8.92 64.57 8.64 L 64.57 8.64 L 64.57 8.64 Q 64.85 8.06 64.98 7.59 L 64.98 7.59 L 64.98 7.59 Q 65.11 7.13 65.2 6.87 L 65.2 6.87 L 65.55 5.89 L 65.55 5.89 Q 65.58 5.78 65.65 5.62 L 65.65 5.62 L 65.65 5.62 Q 65.73 5.46 65.94 5.49 Z M 69.2 10.7 L 69.2 10.7 L 69.2 10.7 Q 69.48 10.7 69.65 10.76 L 69.65 10.76 L 69.65 10.76 Q 69.82 10.82 69.91 10.91 L 69.91 10.91 L 69.91 10.91 Q 70 11 70.03 11.1 L 70.03 11.1 L 70.03 11.1 Q 70.06 11.2 70.06 11.28 L 70.06 11.28 L 70.06 11.28 Q 70.06 11.33 70.04 11.4 L 70.04 11.4 L 70.04 11.4 Q 70.03 11.48 69.98 11.56 L 69.98 11.56 L 69.98 11.56 Q 69.93 11.63 69.83 11.69 L 69.83 11.69 L 69.83 11.69 Q 69.72 11.75 69.54 11.75 L 69.54 11.75 L 69.54 11.75 Q 69.29 11.75 68.95 11.58 L 68.95 11.58 L 68.95 11.58 Q 68.47 11.58 68.24 11.59 L 68.24 11.59 L 68.24 11.59 Q 68.01 11.61 67.91 11.62 L 67.91 11.62 L 67.91 12.68 L 67.91 12.68 Q 67.91 14.34 67.52 15.12 L 67.52 15.12 L 67.52 15.12 Q 67 16.14 65.69 16.14 L 65.69 16.14 L 65.69 16.14 Q 64.62 16.14 63.84 15.4 L 63.84 15.4 L 63.84 15.4 Q 63.04 14.64 63.04 13.66 L 63.04 13.66 L 63.04 13.66 Q 63.04 12.91 63.77 12.31 L 63.77 12.31 L 63.77 12.31 Q 64.47 11.73 65.84 11.27 L 65.84 11.27 L 65.86 11.26 L 65.86 11.26 Q 66.09 11.2 66.38 11.13 L 66.38 11.13 L 66.38 11.13 Q 66.67 11.06 67 10.95 L 67 10.95 L 67 10.95 Q 66.98 10.75 66.96 10.39 L 66.96 10.39 L 66.96 10.39 Q 66.95 10.3 66.94 10.22 L 66.94 10.22 L 66.94 10.22 Q 66.93 10.14 66.93 10.07 L 66.93 10.07 L 66.93 10.07 Q 66.61 10.65 66.21 10.65 L 66.21 10.65 L 66.21 10.65 Q 65.66 10.65 65.31 10.11 L 65.31 10.11 L 65.31 10.11 Q 65 9.62 65 8.83 L 65 8.83 L 65 8.83 Q 65 8.3 65.12 7.67 L 65.12 7.67 L 65.12 7.67 Q 65.24 7.03 65.48 6.19 L 65.48 6.19 L 65.48 6.19 Q 65.59 5.74 65.71 5.43 L 65.71 5.43 L 65.71 5.43 Q 65.83 5.12 65.94 4.89 L 65.94 4.89 L 65.94 4.89 Q 66.04 4.7 66.19 4.51 L 66.19 4.51 L 66.19 4.51 Q 66.33 4.33 66.54 4.33 L 66.54 4.33 L 66.54 4.33 Q 66.7 4.33 66.88 4.4 L 66.88 4.4 L 66.88 4.4 Q 67.06 4.48 67.22 4.61 L 67.22 4.61 L 67.22 4.61 Q 67.38 4.75 67.5 4.93 L 67.5 4.93 L 67.5 4.93 Q 67.62 5.11 67.65 5.31 L 67.65 5.31 L 67.65 5.31 Q 67.72 5.75 67.66 5.94 L 67.66 5.94 L 67.66 5.94 Q 67.61 6.12 67.55 6.2 L 67.55 6.2 L 67.55 6.2 Q 67.52 6.23 67.47 6.27 L 67.47 6.27 L 67.47 6.27 Q 67.42 6.31 67.36 6.33 L 67.36 6.33 L 67.36 6.33 Q 67.3 6.36 67.25 6.33 L 67.25 6.33 L 67.25 6.33 Q 67.2 6.31 67.19 6.22 L 67.19 6.22 L 67.19 6.22 Q 67.14 5.88 67.05 5.63 L 67.05 5.63 L 67.05 5.63 Q 66.95 5.39 66.77 5.36 L 66.77 5.36 L 66.77 5.36 Q 66.72 5.43 66.63 5.7 L 66.63 5.7 L 66.63 5.7 Q 66.53 5.96 66.35 6.61 L 66.35 6.61 L 66.35 6.61 Q 66.14 7.38 66.03 7.97 L 66.03 7.97 L 66.03 7.97 Q 65.93 8.57 65.93 9.1 L 65.93 9.1 L 65.93 9.1 Q 65.93 9.53 65.98 9.7 L 65.98 9.7 L 65.98 9.7 Q 66.04 9.87 66.09 9.87 L 66.09 9.87 L 66.09 9.87 Q 66.09 9.87 66.14 9.85 L 66.14 9.85 L 66.14 9.85 Q 66.19 9.83 66.29 9.69 L 66.29 9.69 L 66.29 9.69 Q 66.39 9.55 66.52 9.26 L 66.52 9.26 L 66.52 9.26 Q 66.65 8.97 66.82 8.44 L 66.82 8.44 L 66.82 8.44 Q 66.91 8.18 66.98 7.96 L 66.98 7.96 L 66.98 7.96 Q 67.05 7.74 67.1 7.55 L 67.1 7.55 L 67.1 7.55 Q 67.14 7.36 67.18 7.18 L 67.18 7.18 L 67.18 7.18 Q 67.21 7 67.24 6.8 L 67.24 6.8 L 67.24 6.8 Q 67.26 6.69 67.24 6.65 L 67.24 6.65 L 67.24 6.65 Q 67.21 6.61 67.26 6.55 L 67.26 6.55 L 67.26 6.55 Q 67.3 6.5 67.35 6.5 L 67.35 6.5 L 67.35 6.5 Q 67.4 6.5 67.42 6.5 L 67.42 6.5 L 67.42 6.5 Q 67.45 6.5 67.49 6.5 L 67.49 6.5 L 67.49 6.5 Q 67.54 6.51 67.56 6.51 L 67.56 6.51 L 67.56 6.51 Q 67.62 6.51 67.66 6.54 L 67.66 6.54 L 67.66 6.54 Q 67.7 6.58 67.76 6.59 L 67.76 6.59 L 67.76 6.59 Q 67.82 6.61 67.85 6.63 L 67.85 6.63 L 67.85 6.63 Q 67.89 6.65 67.93 6.68 L 67.93 6.68 L 67.93 6.68 Q 67.98 6.69 68.04 6.72 L 68.04 6.72 L 68.04 6.72 Q 68.08 6.75 68.12 6.79 L 68.12 6.79 L 68.12 6.79 Q 68.15 6.83 68.12 6.89 L 68.12 6.89 L 68.12 6.89 Q 68 7.31 67.91 7.81 L 67.91 7.81 L 67.91 7.81 Q 67.83 8.26 67.8 8.62 L 67.8 8.62 L 67.8 8.62 Q 67.76 8.97 67.76 9.34 L 67.76 9.34 L 67.76 9.34 Q 67.76 9.63 67.84 10.78 L 67.84 10.78 L 67.84 10.78 Q 68.78 10.7 69.2 10.7 Z M 65.55 15.27 L 65.55 15.27 L 65.55 15.27 Q 67.13 15.27 67.13 12.78 L 67.13 12.78 L 67.13 12.78 Q 67.13 12.75 67.12 12.56 L 67.12 12.56 L 67.12 12.56 Q 67.1 12.36 67.07 11.75 L 67.07 11.75 L 67.07 11.75 Q 66.33 11.77 65.9 11.94 L 65.9 11.94 L 65.9 11.94 Q 65.14 12.25 64.55 12.73 L 64.55 12.73 L 64.55 12.73 Q 63.9 13.27 63.9 13.79 L 63.9 13.79 L 63.9 13.79 Q 63.9 14.38 64.4 14.81 L 64.4 14.81 L 64.4 14.81 Q 64.92 15.27 65.55 15.27 Z M 72.45 5.49 L 72.45 5.49 L 72.45 5.49 Q 72.63 5.49 72.62 5.59 L 72.62 5.59 L 72.62 5.59 Q 72.6 5.7 72.6 5.87 L 72.6 5.87 L 72.6 5.87 Q 72.6 5.89 72.6 5.96 L 72.6 5.96 L 72.6 5.96 Q 72.59 6.02 72.56 6.13 L 72.56 6.13 L 72.56 6.13 Q 72.53 6.24 72.49 6.44 L 72.49 6.44 L 72.49 6.44 Q 72.45 6.64 72.37 6.93 L 72.37 6.93 L 72.37 6.93 Q 72.1 8.01 71.79 8.83 L 71.79 8.83 L 71.79 8.83 Q 71.64 9.24 71.49 9.53 L 71.49 9.53 L 71.49 9.53 Q 71.34 9.81 71.2 10.01 L 71.2 10.01 L 71.2 10.01 Q 70.83 10.54 70.25 10.54 L 70.25 10.54 L 70.25 10.54 Q 69.61 10.54 69.15 9.87 L 69.15 9.87 L 69.15 9.87 Q 68.73 9.24 68.73 8.34 L 68.73 8.34 L 68.73 8.34 Q 68.73 7.62 68.83 6.87 L 68.83 6.87 L 68.83 6.87 Q 68.94 6.13 69.1 5.54 L 69.1 5.54 L 69.1 5.54 Q 69.16 5.33 69.24 5.11 L 69.24 5.11 L 69.24 5.11 Q 69.31 4.89 69.43 4.7 L 69.43 4.7 L 69.43 4.7 Q 69.54 4.51 69.68 4.39 L 69.68 4.39 L 69.68 4.39 Q 69.82 4.27 70.01 4.27 L 70.01 4.27 L 70.01 4.27 Q 70.41 4.27 70.74 4.56 L 70.74 4.56 L 70.74 4.56 Q 70.9 4.72 70.99 4.94 L 70.99 4.94 L 70.99 4.94 Q 71.09 5.17 71.09 5.33 L 71.09 5.33 L 71.09 5.33 Q 71.09 5.61 71.04 5.95 L 71.04 5.95 L 71.04 5.95 Q 70.98 6.29 70.9 6.62 L 70.9 6.62 L 70.9 6.62 Q 70.81 6.94 70.71 7.22 L 70.71 7.22 L 70.71 7.22 Q 70.6 7.49 70.49 7.66 L 70.49 7.66 L 70.49 7.66 Q 70.42 7.78 70.29 7.91 L 70.29 7.91 L 70.29 7.91 Q 70.17 8.04 70.04 8.11 L 70.04 8.11 L 70.04 8.11 Q 69.9 8.19 69.78 8.2 L 69.78 8.2 L 69.78 8.2 Q 69.66 8.2 69.58 8.09 L 69.58 8.09 L 69.58 8.09 Q 69.55 8.2 69.57 8.39 L 69.57 8.39 L 69.57 8.39 Q 69.58 8.57 69.61 8.74 L 69.61 8.74 L 69.61 8.74 Q 69.64 8.92 69.68 9.07 L 69.68 9.07 L 69.68 9.07 Q 69.72 9.23 69.75 9.3 L 69.75 9.3 L 69.75 9.3 Q 69.86 9.53 70.04 9.65 L 70.04 9.65 L 70.04 9.65 Q 70.22 9.77 70.29 9.77 L 70.29 9.77 L 70.29 9.77 Q 70.43 9.77 70.57 9.56 L 70.57 9.56 L 70.57 9.56 Q 70.7 9.35 70.91 9.03 L 70.91 9.03 L 70.91 9.03 Q 71.15 8.65 71.44 7.97 L 71.44 7.97 L 71.44 7.97 Q 71.74 7.28 71.97 6.5 L 71.97 6.5 L 71.97 6.5 Q 72.02 6.34 72.05 6.2 L 72.05 6.2 L 72.05 6.2 Q 72.09 6.05 72.13 5.89 L 72.13 5.89 L 72.13 5.89 Q 72.2 5.49 72.45 5.49 Z M 70.25 5.19 L 70.25 5.19 L 70.25 5.19 Q 70.14 5.5 70.05 5.75 L 70.05 5.75 L 70.05 5.75 Q 69.96 5.99 69.87 6.22 L 69.87 6.22 L 69.87 6.22 Q 69.79 6.45 69.73 6.69 L 69.73 6.69 L 69.73 6.69 Q 69.68 6.93 69.66 7.22 L 69.66 7.22 L 69.66 7.22 Q 69.85 7.21 69.98 6.97 L 69.98 6.97 L 69.98 6.97 Q 70.11 6.73 70.15 6.54 L 70.15 6.54 L 70.15 6.54 Q 70.21 6.26 70.27 5.97 L 70.27 5.97 L 70.27 5.97 Q 70.34 5.68 70.34 5.38 L 70.34 5.38 L 70.34 5.38 Q 70.34 5.31 70.32 5.2 L 70.32 5.2 L 70.32 5.2 Q 70.29 5.1 70.25 5.19 Z M 78.47 5.43 L 78.47 5.43 L 78.47 5.43 Q 78.58 5.43 78.68 5.52 L 78.68 5.52 L 78.68 5.52 Q 78.78 5.6 78.78 5.81 L 78.78 5.81 L 78.78 5.81 Q 78.78 5.85 78.77 5.94 L 78.77 5.94 L 78.77 5.94 Q 78.76 6.02 78.74 6.17 L 78.74 6.17 L 78.74 6.17 Q 78.71 6.33 78.65 6.57 L 78.65 6.57 L 78.65 6.57 Q 78.6 6.8 78.5 7.15 L 78.5 7.15 L 78.5 7.15 Q 78.34 7.67 78.19 8.15 L 78.19 8.15 L 78.19 8.15 Q 78.04 8.62 77.87 9.06 L 77.87 9.06 L 77.87 9.06 Q 77.39 10.35 76.72 10.35 L 76.72 10.35 L 76.72 10.35 Q 75.94 10.35 75.77 8.89 L 75.77 8.89 L 75.77 8.89 Q 75.75 8.89 75.75 8.88 L 75.75 8.88 L 75.75 8.54 L 75.75 8.54 Q 75.66 8.85 75.59 9.05 L 75.59 9.05 L 75.59 9.05 Q 75.53 9.25 75.49 9.35 L 75.49 9.35 L 75.49 9.35 Q 75.11 10.35 74.59 10.35 L 74.59 10.35 L 74.59 10.35 Q 74.47 10.35 74.34 10.3 L 74.34 10.3 L 74.34 10.3 Q 74.21 10.26 74.11 10.14 L 74.11 10.14 L 74.11 10.14 Q 74 10.01 73.93 9.79 L 73.93 9.79 L 73.93 9.79 Q 73.86 9.58 73.86 9.24 L 73.86 9.24 L 73.86 9.24 Q 73.86 9.06 73.95 8.05 L 73.95 8.05 L 73.95 8.05 Q 73.98 7.77 73.98 7.52 L 73.98 7.52 L 73.98 7.52 Q 73.99 7.27 74 7.04 L 74 7.04 L 74 7.04 Q 73.96 7.17 73.92 7.41 L 73.92 7.41 L 73.92 7.41 Q 73.61 8.95 73.49 9.37 L 73.49 9.37 L 73.49 9.37 Q 73.11 10.56 72.52 10.56 L 72.52 10.56 L 72.52 10.56 Q 72.3 10.56 72.17 10.39 L 72.17 10.39 L 72.17 10.39 Q 72.04 10.23 71.97 9.99 L 71.97 9.99 L 71.97 9.99 Q 71.9 9.74 71.88 9.45 L 71.88 9.45 L 71.88 9.45 Q 71.86 9.16 71.86 8.88 L 71.86 8.88 L 71.86 8.88 Q 71.86 8.72 71.87 8.48 L 71.87 8.48 L 71.87 8.48 Q 71.88 8.23 71.89 7.88 L 71.89 7.88 L 71.89 7.88 Q 71.9 7.59 71.9 7.38 L 71.9 7.38 L 71.9 7.38 Q 71.9 7.18 71.9 7.04 L 71.9 7.04 L 71.79 6.73 L 71.79 6.73 Q 71.78 6.72 71.78 6.68 L 71.78 6.68 L 71.78 6.68 Q 71.72 5.85 71.97 5.57 L 71.97 5.57 L 71.97 5.57 Q 72.11 5.43 72.31 5.43 L 72.31 5.43 L 72.31 5.43 Q 72.39 5.43 72.5 5.46 L 72.5 5.46 L 72.5 5.46 Q 72.6 5.49 72.69 5.57 L 72.69 5.57 L 72.69 5.57 Q 72.77 5.66 72.84 5.81 L 72.84 5.81 L 72.84 5.81 Q 72.9 5.96 72.9 6.22 L 72.9 6.22 L 72.9 6.22 Q 72.9 6.8 72.79 7.32 L 72.79 7.32 L 72.79 7.32 Q 72.69 7.76 72.69 8.4 L 72.69 8.4 L 72.69 8.4 Q 72.69 8.55 72.69 8.7 L 72.69 8.7 L 72.69 8.7 Q 72.69 8.85 72.7 8.99 L 72.7 8.99 L 72.7 8.99 Q 72.73 8.89 72.76 8.8 L 72.76 8.8 L 72.76 8.8 Q 72.79 8.71 72.81 8.61 L 72.81 8.61 L 72.81 8.61 Q 72.98 7.69 73.12 7.08 L 73.12 7.08 L 73.12 7.08 Q 73.26 6.47 73.4 6.12 L 73.4 6.12 L 73.4 6.12 Q 73.43 6.05 73.49 5.92 L 73.49 5.92 L 73.49 5.92 Q 73.54 5.78 73.63 5.65 L 73.63 5.65 L 73.63 5.65 Q 73.72 5.52 73.86 5.42 L 73.86 5.42 L 73.86 5.42 Q 73.99 5.32 74.17 5.32 L 74.17 5.32 L 74.17 5.32 Q 74.28 5.32 74.43 5.39 L 74.43 5.39 L 74.43 5.39 Q 74.58 5.46 74.69 5.7 L 74.69 5.7 L 74.69 5.7 Q 74.83 5.98 74.83 6.54 L 74.83 6.54 L 74.83 6.55 L 74.83 6.55 Q 74.76 7.2 74.72 7.71 L 74.72 7.71 L 74.72 7.71 Q 74.68 8.22 74.68 8.6 L 74.68 8.6 L 74.68 8.6 Q 74.68 8.75 74.68 8.84 L 74.68 8.84 L 74.68 8.84 Q 74.69 8.93 74.69 9 L 74.69 9 L 74.69 9 Q 74.77 8.89 74.91 8.54 L 74.91 8.54 L 74.91 8.54 Q 75.04 8.19 75.24 7.45 L 75.24 7.45 L 75.24 7.45 Q 75.39 6.87 75.47 6.52 L 75.47 6.52 L 75.47 6.52 Q 75.56 6.16 75.6 5.95 L 75.6 5.95 L 75.6 5.95 Q 75.64 5.74 75.64 5.66 L 75.64 5.66 L 75.64 5.66 Q 75.64 5.59 75.64 5.56 L 75.64 5.56 L 75.64 5.49 L 75.64 5.49 Q 75.67 5.39 75.77 5.27 L 75.77 5.27 L 75.77 5.27 Q 75.87 5.15 76.16 5.15 L 76.16 5.15 L 76.16 5.15 Q 76.41 5.15 76.85 5.43 L 76.85 5.43 L 76.85 5.43 Q 76.97 5.52 76.93 5.64 L 76.93 5.64 L 76.93 5.64 Q 76.57 7.39 76.57 8.53 L 76.57 8.53 L 76.57 8.53 Q 76.57 8.85 76.59 9.04 L 76.59 9.04 L 76.59 9.04 Q 76.61 9.23 76.64 9.32 L 76.64 9.32 L 76.64 9.32 Q 76.68 9.44 76.72 9.48 L 76.72 9.48 L 76.72 9.48 Q 76.73 9.48 76.78 9.45 L 76.78 9.45 L 76.78 9.45 Q 76.83 9.42 76.92 9.3 L 76.92 9.3 L 76.92 9.3 Q 77.01 9.18 77.14 8.93 L 77.14 8.93 L 77.14 8.93 Q 77.27 8.67 77.42 8.2 L 77.42 8.2 L 77.42 8.19 L 77.42 8.19 Q 77.43 8.18 77.46 8.09 L 77.46 8.09 L 77.46 8.09 Q 77.49 7.99 77.55 7.77 L 77.55 7.77 L 77.55 7.77 Q 77.62 7.55 77.72 7.15 L 77.72 7.15 L 77.72 7.15 Q 77.83 6.76 77.99 6.15 L 77.99 6.15 L 77.99 6.15 Q 78.02 6.08 78.04 5.99 L 78.04 5.99 L 78.04 5.99 Q 78.06 5.91 78.09 5.82 L 78.09 5.82 L 78.12 5.7 L 78.12 5.68 L 78.12 5.68 Q 78.22 5.43 78.47 5.43 Z M 81.49 5.49 L 81.49 5.49 L 81.49 5.49 Q 81.68 5.49 81.66 5.59 L 81.66 5.59 L 81.66 5.59 Q 81.65 5.7 81.65 5.87 L 81.65 5.87 L 81.65 5.87 Q 81.65 5.89 81.64 5.96 L 81.64 5.96 L 81.64 5.96 Q 81.63 6.02 81.61 6.13 L 81.61 6.13 L 81.61 6.13 Q 81.58 6.24 81.54 6.44 L 81.54 6.44 L 81.54 6.44 Q 81.49 6.64 81.41 6.93 L 81.41 6.93 L 81.41 6.93 Q 81.14 8.01 80.84 8.83 L 80.84 8.83 L 80.84 8.83 Q 80.68 9.24 80.54 9.53 L 80.54 9.53 L 80.54 9.53 Q 80.39 9.81 80.25 10.01 L 80.25 10.01 L 80.25 10.01 Q 79.87 10.54 79.3 10.54 L 79.3 10.54 L 79.3 10.54 Q 78.65 10.54 78.19 9.87 L 78.19 9.87 L 78.19 9.87 Q 77.77 9.24 77.77 8.34 L 77.77 8.34 L 77.77 8.34 Q 77.77 7.62 77.88 6.87 L 77.88 6.87 L 77.88 6.87 Q 77.98 6.13 78.15 5.54 L 78.15 5.54 L 78.15 5.54 Q 78.2 5.33 78.28 5.11 L 78.28 5.11 L 78.28 5.11 Q 78.36 4.89 78.47 4.7 L 78.47 4.7 L 78.47 4.7 Q 78.58 4.51 78.72 4.39 L 78.72 4.39 L 78.72 4.39 Q 78.86 4.27 79.06 4.27 L 79.06 4.27 L 79.06 4.27 Q 79.45 4.27 79.79 4.56 L 79.79 4.56 L 79.79 4.56 Q 79.94 4.72 80.04 4.94 L 80.04 4.94 L 80.04 4.94 Q 80.14 5.17 80.14 5.33 L 80.14 5.33 L 80.14 5.33 Q 80.14 5.61 80.08 5.95 L 80.08 5.95 L 80.08 5.95 Q 80.02 6.29 79.94 6.62 L 79.94 6.62 L 79.94 6.62 Q 79.86 6.94 79.75 7.22 L 79.75 7.22 L 79.75 7.22 Q 79.65 7.49 79.53 7.66 L 79.53 7.66 L 79.53 7.66 Q 79.46 7.78 79.34 7.91 L 79.34 7.91 L 79.34 7.91 Q 79.21 8.04 79.08 8.11 L 79.08 8.11 L 79.08 8.11 Q 78.95 8.19 78.83 8.2 L 78.83 8.2 L 78.83 8.2 Q 78.71 8.2 78.62 8.09 L 78.62 8.09 L 78.62 8.09 Q 78.6 8.2 78.61 8.39 L 78.61 8.39 L 78.61 8.39 Q 78.62 8.57 78.65 8.74 L 78.65 8.74 L 78.65 8.74 Q 78.68 8.92 78.72 9.07 L 78.72 9.07 L 78.72 9.07 Q 78.76 9.23 78.79 9.3 L 78.79 9.3 L 78.79 9.3 Q 78.9 9.53 79.09 9.65 L 79.09 9.65 L 79.09 9.65 Q 79.27 9.77 79.34 9.77 L 79.34 9.77 L 79.34 9.77 Q 79.48 9.77 79.61 9.56 L 79.61 9.56 L 79.61 9.56 Q 79.74 9.35 79.95 9.03 L 79.95 9.03 L 79.95 9.03 Q 80.19 8.65 80.49 7.97 L 80.49 7.97 L 80.49 7.97 Q 80.78 7.28 81.02 6.5 L 81.02 6.5 L 81.02 6.5 Q 81.06 6.34 81.1 6.2 L 81.1 6.2 L 81.1 6.2 Q 81.13 6.05 81.17 5.89 L 81.17 5.89 L 81.17 5.89 Q 81.24 5.49 81.49 5.49 Z M 79.3 5.19 L 79.3 5.19 L 79.3 5.19 Q 79.18 5.5 79.09 5.75 L 79.09 5.75 L 79.09 5.75 Q 79 5.99 78.92 6.22 L 78.92 6.22 L 78.92 6.22 Q 78.83 6.45 78.78 6.69 L 78.78 6.69 L 78.78 6.69 Q 78.72 6.93 78.71 7.22 L 78.71 7.22 L 78.71 7.22 Q 78.89 7.21 79.02 6.97 L 79.02 6.97 L 79.02 6.97 Q 79.16 6.73 79.2 6.54 L 79.2 6.54 L 79.2 6.54 Q 79.25 6.26 79.32 5.97 L 79.32 5.97 L 79.32 5.97 Q 79.38 5.68 79.38 5.38 L 79.38 5.38 L 79.38 5.38 Q 79.38 5.31 79.36 5.2 L 79.36 5.2 L 79.36 5.2 Q 79.34 5.1 79.3 5.19 Z M 85.58 5.6 L 85.58 5.6 L 85.58 5.6 Q 85.64 5.6 85.77 5.66 L 85.77 5.66 L 85.77 5.66 Q 85.9 5.73 85.9 6.02 L 85.9 6.02 L 85.9 6.02 Q 85.9 6.48 85.36 8.12 L 85.36 8.12 L 85.36 8.12 Q 85.01 9.2 84.7 9.8 L 84.7 9.8 L 84.7 9.8 Q 84.36 10.44 84.01 10.44 L 84.01 10.44 L 84.01 10.44 Q 83.27 10.44 83.06 9.21 L 83.06 9.21 L 83.06 9.21 Q 83.02 9.02 82.99 8.68 L 82.99 8.68 L 82.99 8.68 Q 82.95 8.34 82.92 7.85 L 82.92 7.85 L 82.92 7.85 Q 82.84 8.2 82.73 8.63 L 82.73 8.63 L 82.73 8.63 Q 82.61 9.06 82.47 9.58 L 82.47 9.58 L 82.47 9.58 Q 82.45 9.65 82.4 9.78 L 82.4 9.78 L 82.4 9.78 Q 82.36 9.91 82.29 10.04 L 82.29 10.04 L 82.29 10.04 Q 82.22 10.18 82.1 10.28 L 82.1 10.28 L 82.1 10.28 Q 81.98 10.37 81.82 10.37 L 81.82 10.37 L 81.82 10.37 Q 81.73 10.37 81.61 10.35 L 81.61 10.35 L 81.61 10.35 Q 81.49 10.32 81.38 10.23 L 81.38 10.23 L 81.38 10.23 Q 81.27 10.15 81.18 10 L 81.18 10 L 81.18 10 Q 81.09 9.84 81.05 9.58 L 81.05 9.58 L 81.05 9.56 L 81.05 9.56 Q 81.03 9.28 81.02 8.99 L 81.02 8.99 L 81.02 8.99 Q 81 8.71 80.99 8.43 L 80.99 8.43 L 80.99 8.43 Q 80.95 7.81 80.99 7.21 L 80.99 7.21 L 80.99 7.21 Q 81 6.99 81.01 6.87 L 81.01 6.87 L 81.01 6.87 Q 81.02 6.76 81.03 6.71 L 81.03 6.71 L 80.92 6.47 L 80.92 6.47 Q 80.89 6.41 80.89 6.37 L 80.89 6.37 L 80.89 6.37 Q 80.92 6.06 80.94 5.94 L 80.94 5.94 L 80.94 5.94 Q 80.96 5.82 80.99 5.77 L 80.99 5.77 L 80.99 5.77 Q 81.12 5.4 81.55 5.4 L 81.55 5.4 L 81.55 5.4 Q 81.79 5.4 81.91 5.53 L 81.91 5.53 L 81.91 5.53 Q 82.04 5.66 82.04 5.87 L 82.04 5.87 L 82.04 5.87 Q 82.04 5.89 82.03 5.96 L 82.03 5.96 L 82.03 5.96 Q 82.01 6.02 81.94 6.27 L 81.94 6.27 L 81.94 6.27 Q 81.9 6.41 81.87 6.52 L 81.87 6.52 L 81.87 6.52 Q 81.84 6.64 81.84 6.75 L 81.84 6.75 L 81.84 6.75 Q 81.84 6.9 81.84 7.13 L 81.84 7.13 L 81.84 7.13 Q 81.84 7.35 81.83 7.63 L 81.83 7.63 L 81.83 7.63 Q 81.83 7.91 81.82 8.09 L 81.82 8.09 L 81.82 8.09 Q 81.82 8.27 81.82 8.36 L 81.82 8.36 L 81.82 8.36 Q 81.82 8.83 81.86 9.02 L 81.86 9.02 L 81.86 9 L 81.86 9 Q 81.97 8.6 82.04 8.32 L 82.04 8.32 L 82.04 8.32 Q 82.11 8.04 82.18 7.85 L 82.18 7.85 L 82.18 7.85 Q 82.6 6.55 82.68 5.57 L 82.68 5.57 L 82.68 5.57 Q 82.73 4.83 82.98 4.68 L 82.98 4.68 L 82.98 4.68 Q 83.03 4.63 83.1 4.63 L 83.1 4.63 L 83.1 4.63 Q 83.69 4.68 83.87 4.89 L 83.87 4.89 L 83.87 4.89 Q 84.06 5.11 84.06 5.32 L 84.06 5.32 L 84.06 5.36 L 84.06 5.36 Q 84.04 5.39 84.01 5.59 L 84.01 5.59 L 84.01 5.59 Q 83.99 5.78 83.89 6.36 L 83.89 6.36 L 83.89 6.36 Q 83.82 6.86 83.78 7.29 L 83.78 7.29 L 83.78 7.29 Q 83.73 7.71 83.73 8.08 L 83.73 8.08 L 83.73 8.08 Q 83.73 8.54 83.76 8.82 L 83.76 8.82 L 83.76 8.82 Q 83.79 9.1 83.83 9.25 L 83.83 9.25 L 83.83 9.25 Q 83.87 9.39 83.91 9.44 L 83.91 9.44 L 83.91 9.44 Q 83.94 9.49 83.96 9.49 L 83.96 9.49 L 83.96 9.49 Q 83.97 9.48 84.02 9.43 L 84.02 9.43 L 84.02 9.43 Q 84.07 9.38 84.15 9.23 L 84.15 9.23 L 84.15 9.23 Q 84.24 9.07 84.36 8.79 L 84.36 8.79 L 84.36 8.79 Q 84.49 8.51 84.64 8.05 L 84.64 8.05 L 84.64 8.05 Q 84.8 7.56 84.92 7.1 L 84.92 7.1 L 84.92 7.1 Q 85.05 6.64 85.15 6.22 L 85.15 6.22 L 85.15 6.22 Q 85.2 5.98 85.3 5.79 L 85.3 5.79 L 85.3 5.79 Q 85.39 5.6 85.58 5.6 Z M 88.3 2.66 L 88.3 2.66 L 88.3 2.66 Q 88.49 2.69 88.49 2.87 L 88.49 2.87 L 88.49 2.97 L 88.49 2.97 Q 88.49 3.04 88.45 3.09 L 88.45 3.09 L 88.45 3.09 Q 88.41 3.15 88.27 3.21 L 88.27 3.21 L 88.27 3.21 Q 88.13 3.26 87.64 3.35 L 87.64 3.35 L 87.64 3.35 Q 87.32 3.42 87.11 3.43 L 87.11 3.43 L 87.11 3.43 Q 86.9 3.44 86.74 3.44 L 86.74 3.44 L 86.31 3.47 L 86.31 3.47 Q 86.28 3.67 86.25 4.09 L 86.25 4.09 L 86.25 4.09 Q 86.21 4.52 86.14 5.15 L 86.14 5.15 L 86.14 5.15 Q 86.09 5.68 86.06 6.02 L 86.06 6.02 L 86.06 6.02 Q 86.03 6.36 86.01 6.55 L 86.01 6.55 L 86.01 6.55 Q 85.99 6.75 85.98 6.83 L 85.98 6.83 L 85.98 6.83 Q 85.97 6.92 85.97 6.94 L 85.97 6.94 L 85.97 6.94 Q 85.97 7.62 85.98 8.03 L 85.98 8.03 L 85.98 8.03 Q 85.99 8.44 86 8.6 L 86 8.6 L 86 8.6 Q 86.04 9.04 86.12 9.18 L 86.12 9.18 L 86.12 9.18 Q 86.2 9.32 86.23 9.32 L 86.23 9.32 L 86.23 9.32 Q 86.28 9.3 86.34 9.23 L 86.34 9.23 L 86.34 9.23 Q 86.39 9.16 86.47 9.03 L 86.47 9.03 L 86.47 9.03 Q 86.55 8.9 86.66 8.67 L 86.66 8.67 L 86.66 8.67 Q 86.81 8.29 86.99 7.71 L 86.99 7.71 L 86.99 7.71 Q 87.16 7.13 87.35 6.36 L 87.35 6.36 L 87.35 6.36 Q 87.39 6.17 87.43 6.05 L 87.43 6.05 L 87.43 6.05 Q 87.47 5.92 87.5 5.82 L 87.5 5.82 L 87.5 5.82 Q 87.53 5.75 87.59 5.64 L 87.59 5.64 L 87.59 5.64 Q 87.65 5.53 87.79 5.53 L 87.79 5.53 L 87.79 5.53 Q 87.92 5.53 88.03 5.62 L 88.03 5.62 L 88.03 5.62 Q 88.14 5.71 88.14 5.95 L 88.14 5.95 L 88.14 5.95 Q 88.14 6.22 88.02 6.75 L 88.02 6.75 L 88.02 6.75 Q 87.89 7.29 87.61 8.13 L 87.61 8.13 L 87.61 8.13 Q 87.25 9.21 86.91 9.72 L 86.91 9.72 L 86.91 9.72 Q 86.56 10.23 86.18 10.23 L 86.18 10.23 L 86.18 10.23 Q 85.65 10.23 85.33 9.42 L 85.33 9.42 L 85.33 9.42 Q 85.05 8.69 85.05 7.62 L 85.05 7.62 L 85.05 7.62 Q 85.05 7.27 85.14 6.27 L 85.14 6.27 L 85.14 6.27 Q 85.23 5.28 85.43 3.5 L 85.43 3.5 L 85.43 3.5 Q 85.3 3.53 85.19 3.49 L 85.19 3.49 L 85.19 3.49 Q 85.08 3.46 85.04 3.43 L 85.04 3.43 L 85.04 3.43 Q 85.01 3.42 84.97 3.37 L 84.97 3.37 L 84.97 3.37 Q 84.92 3.33 84.81 3.29 L 84.81 3.29 L 84.81 3.29 Q 84.62 3.22 84.57 3.12 L 84.57 3.12 L 84.57 3.12 Q 84.52 3.01 84.52 2.94 L 84.52 2.94 L 84.52 2.94 Q 84.52 2.9 84.57 2.79 L 84.57 2.79 L 84.57 2.79 Q 84.62 2.69 84.9 2.63 L 84.9 2.63 L 84.9 2.63 Q 84.98 2.62 85.04 2.61 L 85.04 2.61 L 85.04 2.61 Q 85.09 2.6 85.15 2.6 L 85.15 2.6 L 85.15 2.6 Q 85.2 2.59 85.28 2.58 L 85.28 2.58 L 85.28 2.58 Q 85.36 2.58 85.48 2.56 L 85.48 2.56 L 85.48 2.56 Q 85.5 2.41 85.51 2.18 L 85.51 2.18 L 85.51 2.18 Q 85.53 1.96 85.54 1.67 L 85.54 1.67 L 85.47 1.43 L 85.47 1.43 Q 85.47 1.34 85.48 1.3 L 85.48 1.3 L 85.48 1.3 Q 85.6 1.08 85.83 1.08 L 85.83 1.08 L 85.83 1.08 Q 86.09 1.08 86.55 1.37 L 86.55 1.37 L 86.55 1.37 Q 86.63 1.44 86.63 1.54 L 86.63 1.54 L 86.63 1.86 L 86.63 1.9 L 86.63 1.9 Q 86.6 2.06 86.57 2.22 L 86.57 2.22 L 86.57 2.22 Q 86.53 2.38 86.49 2.58 L 86.49 2.58 L 86.49 2.58 Q 86.59 2.58 86.61 2.58 L 86.61 2.58 L 86.61 2.58 Q 86.63 2.58 86.65 2.58 L 86.65 2.58 L 86.65 2.58 Q 86.66 2.59 86.72 2.6 L 86.72 2.6 L 86.72 2.6 Q 86.77 2.6 86.97 2.6 L 86.97 2.6 L 86.97 2.6 Q 87.15 2.6 87.25 2.61 L 87.25 2.61 L 87.25 2.61 Q 87.36 2.62 87.48 2.63 L 87.48 2.63 L 87.48 2.63 Q 87.6 2.63 87.78 2.64 L 87.78 2.64 L 87.78 2.64 Q 87.96 2.65 88.3 2.66 Z M 95.93 5.73 L 95.93 5.73 L 95.93 5.73 Q 96.26 5.88 96.66 6.1 L 96.66 6.1 L 96.66 6.1 Q 97.05 6.33 97.37 6.66 L 97.37 6.66 L 97.37 6.66 Q 97.69 6.99 97.91 7.41 L 97.91 7.41 L 97.91 7.41 Q 98.13 7.83 98.13 8.34 L 98.13 8.34 L 98.13 8.34 Q 98.13 8.78 97.97 9.29 L 97.97 9.29 L 97.97 9.29 Q 97.8 9.8 97.33 10.18 L 97.33 10.18 L 97.33 10.18 Q 97.06 10.37 96.61 10.58 L 96.61 10.58 L 96.61 10.58 Q 96.17 10.78 95.65 10.82 L 95.65 10.82 L 95.65 10.82 Q 95.13 10.86 94.56 10.78 L 94.56 10.78 L 94.56 10.78 Q 94 10.7 93.51 10.57 L 93.51 10.57 L 93.51 10.57 Q 92.48 10.35 91.59 9.83 L 91.59 9.83 L 91.59 9.83 Q 91.35 9.7 91.25 9.56 L 91.25 9.56 L 91.25 9.56 Q 91.13 9.39 91.13 9.18 L 91.13 9.18 L 91.13 9.18 Q 91.13 9.1 91.17 8.97 L 91.17 8.97 L 91.17 8.97 Q 91.21 8.85 91.41 8.76 L 91.41 8.76 L 91.41 8.76 Q 91.46 8.74 91.49 8.74 L 91.49 8.74 L 91.49 8.74 Q 91.56 8.74 91.6 8.78 L 91.6 8.78 L 91.6 8.78 Q 91.64 8.82 91.73 8.9 L 91.73 8.9 L 91.73 8.9 Q 91.8 8.96 91.86 9.03 L 91.86 9.03 L 91.86 9.03 Q 91.92 9.1 92.04 9.21 L 92.04 9.21 L 92.04 9.21 Q 92.06 9.23 92.25 9.29 L 92.25 9.29 L 92.25 9.29 Q 92.43 9.35 92.99 9.49 L 92.99 9.49 L 92.99 9.49 Q 93.65 9.66 94.26 9.8 L 94.26 9.8 L 94.26 9.8 Q 94.88 9.94 95.45 9.83 L 95.45 9.83 L 95.45 9.83 Q 96.01 9.7 96.33 9.49 L 96.33 9.49 L 96.33 9.49 Q 96.64 9.28 96.78 9.06 L 96.78 9.06 L 96.78 9.06 Q 96.92 8.85 96.95 8.66 L 96.95 8.66 L 96.95 8.66 Q 96.98 8.47 96.98 8.4 L 96.98 8.4 L 96.98 8.4 Q 96.98 8.15 96.82 7.89 L 96.82 7.89 L 96.82 7.89 Q 96.66 7.63 96.45 7.42 L 96.45 7.42 L 96.45 7.42 Q 96.25 7.21 96.06 7.07 L 96.06 7.07 L 96.06 7.07 Q 95.87 6.93 95.82 6.9 L 95.82 6.9 L 95.82 6.9 Q 95.63 6.8 95.2 6.67 L 95.2 6.67 L 95.2 6.67 Q 94.77 6.54 94.24 6.29 L 94.24 6.29 L 94.24 6.29 Q 93.72 6.05 93.16 5.64 L 93.16 5.64 L 93.16 5.64 Q 92.6 5.24 92.16 4.59 L 92.16 4.59 L 92.16 4.59 Q 91.99 4.35 91.92 4.02 L 91.92 4.02 L 91.92 4.02 Q 91.84 3.7 91.82 3.37 L 91.82 3.37 L 91.82 3.37 Q 91.8 3.04 91.83 2.74 L 91.83 2.74 L 91.83 2.74 Q 91.85 2.45 91.9 2.25 L 91.9 2.25 L 91.9 2.25 Q 92.04 1.65 92.34 1.02 L 92.34 1.02 L 92.34 1.02 Q 92.65 0.39 93.04 -0.06 L 93.04 -0.06 L 93.04 -0.06 Q 93.44 -0.5 93.91 -0.76 L 93.91 -0.76 L 93.91 -0.76 Q 94.37 -1.02 94.77 -1.02 L 94.77 -1.02 L 94.77 -1.02 Q 95.3 -1.02 95.79 -0.83 L 95.79 -0.83 L 95.79 -0.83 Q 96.28 -0.63 96.7 -0.18 L 96.7 -0.18 L 96.7 -0.18 Q 97.09 0.22 97.27 0.68 L 97.27 0.68 L 97.27 0.68 Q 97.44 1.13 97.47 1.6 L 97.47 1.6 L 97.47 1.6 Q 97.48 1.88 97.49 1.94 L 97.49 1.94 L 97.49 1.94 Q 97.5 2 97.5 2.01 L 97.5 2.01 L 97.5 2.01 Q 97.5 2.02 97.49 2.06 L 97.49 2.06 L 97.49 2.06 Q 97.48 2.1 97.48 2.35 L 97.48 2.35 L 97.48 2.35 Q 97.48 2.9 97.38 3.15 L 97.38 3.15 L 97.38 3.15 Q 97.3 3.39 97.17 3.46 L 97.17 3.46 L 97.17 3.46 Q 97.05 3.53 96.96 3.53 L 96.96 3.53 L 96.96 3.53 Q 96.78 3.53 96.68 3.45 L 96.68 3.45 L 96.68 3.45 Q 96.59 3.37 96.53 3.3 L 96.53 3.3 L 96.53 3.3 Q 96.42 3.11 96.42 2.77 L 96.42 2.77 L 96.42 2.77 Q 96.42 2.48 96.42 2.39 L 96.42 2.39 L 96.42 2.39 Q 96.42 2.3 96.41 2.22 L 96.41 2.22 L 96.41 2.22 Q 96.4 2.14 96.39 2.02 L 96.39 2.02 L 96.39 2.02 Q 96.38 1.89 96.35 1.54 L 96.35 1.54 L 96.35 1.54 Q 96.32 1.25 96.2 1.03 L 96.2 1.03 L 96.2 1.03 Q 96.08 0.81 95.96 0.63 L 95.96 0.63 L 95.96 0.63 Q 95.86 0.5 95.68 0.39 L 95.68 0.39 L 95.68 0.39 Q 95.49 0.28 95.27 0.22 L 95.27 0.22 L 95.27 0.22 Q 95.05 0.17 94.82 0.18 L 94.82 0.18 L 94.82 0.18 Q 94.58 0.2 94.4 0.32 L 94.4 0.32 L 94.4 0.32 Q 94.16 0.48 93.98 0.64 L 93.98 0.64 L 93.98 0.64 Q 93.79 0.81 93.52 1.23 L 93.52 1.23 L 93.52 1.23 Q 93.37 1.47 93.27 1.76 L 93.27 1.76 L 93.27 1.76 Q 93.17 2.06 93.1 2.51 L 93.1 2.51 L 93.1 2.51 Q 93.07 2.63 93.06 2.83 L 93.06 2.83 L 93.06 2.83 Q 93.04 3.04 93.06 3.27 L 93.06 3.27 L 93.06 3.27 Q 93.07 3.5 93.13 3.75 L 93.13 3.75 L 93.13 3.75 Q 93.18 3.99 93.32 4.19 L 93.32 4.19 L 93.32 4.19 Q 93.65 4.65 93.91 4.87 L 93.91 4.87 L 93.91 4.87 Q 94.18 5.08 94.46 5.19 L 94.46 5.19 L 94.46 5.19 Q 94.74 5.31 95.09 5.4 L 95.09 5.4 L 95.09 5.4 Q 95.44 5.5 95.93 5.73 Z M 103.57 11.13 L 103.57 11.13 L 103.57 11.13 Q 103.85 11.26 103.85 11.56 L 103.85 11.56 L 103.85 11.56 Q 103.85 11.66 103.78 11.8 L 103.78 11.8 L 103.71 11.91 L 103.57 11.9 L 103.57 11.9 Q 103.17 11.83 102.98 11.81 L 102.98 11.81 L 102.98 11.81 Q 102.79 11.79 102.72 11.79 L 102.72 11.79 L 102.72 11.79 Q 102.65 11.79 102.49 11.82 L 102.49 11.82 L 102.49 11.82 Q 102.33 11.86 102 11.97 L 102 11.97 L 102 11.97 Q 102.02 12.03 102.02 12.12 L 102.02 12.12 L 102.02 12.12 Q 102.02 12.21 102.03 12.33 L 102.03 12.33 L 102.03 12.33 Q 102.05 12.57 102.05 12.72 L 102.05 12.72 L 102.05 12.72 Q 102.05 12.87 102.05 12.96 L 102.05 12.96 L 102.05 12.96 Q 102.05 14.73 101.47 15.64 L 101.47 15.64 L 101.47 15.64 Q 100.86 16.59 99.65 16.59 L 99.65 16.59 L 99.65 16.59 Q 98.84 16.59 98.29 16.04 L 98.29 16.04 L 98.29 16.04 Q 97.75 15.48 97.75 14.67 L 97.75 14.67 L 97.75 14.67 Q 97.75 13.47 99.2 12.43 L 99.2 12.43 L 99.2 12.43 Q 100.23 11.7 101.15 11.48 L 101.15 11.48 L 101.15 11.48 Q 101.15 11.28 101.13 10.99 L 101.13 10.99 L 101.13 10.99 Q 101.11 10.7 101.08 10.32 L 101.08 10.32 L 101.08 10.32 Q 101.05 10.16 101.05 10.05 L 101.05 10.05 L 101.05 10.05 Q 101.04 9.94 101.02 9.83 L 101.02 9.83 L 101.02 9.83 Q 101 9.9 100.98 9.95 L 100.98 9.95 L 100.98 9.95 Q 100.95 10 100.93 10.07 L 100.93 10.07 L 100.91 10.07 L 100.91 10.07 Q 100.62 10.67 100.13 10.67 L 100.13 10.67 L 100.13 10.67 Q 99.6 10.67 99.26 10.12 L 99.26 10.12 L 99.26 10.12 Q 99.08 9.79 99.01 9.35 L 99.01 9.35 L 99.01 9.35 Q 98.85 9.74 98.73 9.98 L 98.73 9.98 L 98.73 9.98 Q 98.6 10.22 98.49 10.35 L 98.49 10.35 L 98.49 10.35 Q 98.38 10.49 98.29 10.53 L 98.29 10.53 L 98.29 10.53 Q 98.2 10.57 98.11 10.57 L 98.11 10.57 L 98.11 10.57 Q 97.75 10.57 97.66 10.44 L 97.66 10.44 L 97.66 10.44 Q 97.57 10.32 97.57 10.22 L 97.57 10.22 L 97.57 10.22 Q 97.57 10.07 97.63 9.99 L 97.63 9.99 L 97.63 9.99 Q 97.69 9.91 97.75 9.88 L 97.75 9.88 L 97.76 9.87 L 97.97 9.76 L 98 9.76 L 98 9.76 Q 98.01 9.74 98.06 9.68 L 98.06 9.68 L 98.06 9.68 Q 98.1 9.62 98.18 9.46 L 98.18 9.46 L 98.18 9.46 Q 98.25 9.31 98.35 9.05 L 98.35 9.05 L 98.35 9.05 Q 98.45 8.79 98.59 8.39 L 98.59 8.39 L 98.59 8.39 Q 98.94 7.32 99.22 6.17 L 99.22 6.17 L 99.22 6.17 Q 99.22 6.15 99.23 6.13 L 99.23 6.13 L 99.23 6.13 Q 99.23 6.12 99.23 6.09 L 99.23 6.09 L 99.23 6.09 Q 99.29 5.73 99.31 5.6 L 99.31 5.6 L 99.31 5.6 Q 99.33 5.47 99.36 5.42 L 99.36 5.42 L 99.36 5.42 Q 99.39 5.35 99.48 5.25 L 99.48 5.25 L 99.48 5.25 Q 99.58 5.15 99.79 5.15 L 99.79 5.15 L 99.79 5.15 Q 100 5.15 100.13 5.28 L 100.13 5.28 L 100.13 5.28 Q 100.16 5.32 100.19 5.4 L 100.19 5.4 L 100.19 5.4 Q 100.23 5.47 100.23 5.59 L 100.23 5.59 L 100.23 5.59 Q 100.11 6.37 100.06 7.11 L 100.06 7.11 L 100.06 7.11 Q 99.93 8.27 99.93 8.92 L 99.93 8.92 L 99.93 8.92 Q 99.93 9.51 100.01 9.71 L 100.01 9.71 L 100.01 9.71 Q 100.09 9.91 100.11 9.93 L 100.11 9.93 L 100.11 9.93 Q 100.14 9.9 100.22 9.8 L 100.22 9.8 L 100.22 9.8 Q 100.3 9.7 100.42 9.39 L 100.42 9.39 L 100.42 9.39 Q 100.53 9.11 100.65 8.73 L 100.65 8.73 L 100.65 8.73 Q 100.77 8.34 100.9 7.84 L 100.9 7.84 L 100.9 7.84 Q 100.95 7.39 101.04 6.72 L 101.04 6.72 L 101.04 6.72 Q 101.12 6.05 101.25 5.12 L 101.25 5.12 L 101.25 5.12 Q 101.32 4.61 101.84 4.56 L 101.84 4.56 L 101.84 4.56 Q 101.85 4.55 101.91 4.55 L 101.91 4.55 L 101.91 4.55 Q 102.09 4.55 102.19 4.66 L 102.19 4.66 L 102.19 4.66 Q 102.28 4.77 102.28 4.96 L 102.28 4.96 L 102.28 4.96 Q 102.28 5.15 102.21 5.52 L 102.21 5.52 L 102.21 5.52 Q 102.13 5.89 101.96 6.48 L 101.96 6.48 L 101.96 6.48 Q 101.93 6.57 101.91 6.75 L 101.91 6.75 L 101.91 6.75 Q 101.89 6.94 101.88 7.29 L 101.88 7.29 L 101.88 7.29 Q 101.86 7.64 101.86 8.17 L 101.86 8.17 L 101.86 8.17 Q 101.85 8.69 101.85 9.46 L 101.85 9.46 L 101.85 9.46 Q 101.86 9.79 101.87 10.12 L 101.87 10.12 L 101.87 10.12 Q 101.88 10.46 101.91 10.81 L 101.91 10.81 L 101.91 10.81 Q 101.91 10.96 101.91 11.07 L 101.91 11.07 L 101.91 11.07 Q 101.92 11.17 101.92 11.24 L 101.92 11.24 L 101.92 11.24 Q 101.99 11.21 102.07 11.19 L 102.07 11.19 L 102.07 11.19 Q 102.16 11.17 102.27 11.14 L 102.27 11.14 L 102.27 11.14 Q 102.7 11.02 102.98 11.02 L 102.98 11.02 L 102.98 11.02 Q 103.35 11.02 103.57 11.13 Z M 101.19 13.05 L 101.19 12.24 L 101.19 12.24 Q 101.07 12.28 100.94 12.33 L 100.94 12.33 L 100.94 12.33 Q 100.81 12.38 100.7 12.43 L 100.7 12.43 L 100.69 12.43 L 100.69 12.43 Q 99.86 12.8 99.33 13.36 L 99.33 13.36 L 99.33 13.36 Q 98.62 14.06 98.62 14.81 L 98.62 14.81 L 98.62 14.81 Q 98.62 15.25 98.9 15.57 L 98.9 15.57 L 98.9 15.57 Q 99.16 15.88 99.51 15.88 L 99.51 15.88 L 99.51 15.88 Q 100.21 15.88 100.67 15.11 L 100.67 15.11 L 100.67 15.11 Q 101.19 14.28 101.19 13.05 L 101.19 13.05 Z M 104.12 5.49 L 104.12 5.49 L 104.12 5.49 Q 104.12 5.77 104.21 6.19 L 104.21 6.19 L 104.21 6.19 Q 104.3 6.61 104.48 7.2 L 104.48 7.2 L 104.48 7.2 Q 104.68 7.81 104.76 8.24 L 104.76 8.24 L 104.76 8.24 Q 104.85 8.67 104.85 8.93 L 104.85 8.93 L 104.85 8.93 Q 104.85 9.66 104.54 10.11 L 104.54 10.11 L 104.54 10.11 Q 104.19 10.63 103.68 10.63 L 103.68 10.63 L 103.68 10.63 Q 103.15 10.63 102.73 10.16 L 102.73 10.16 L 102.73 10.16 Q 102.44 9.86 102.44 9.55 L 102.44 9.55 L 102.44 9.55 Q 102.44 9.11 102.72 9.04 L 102.72 9.04 L 102.72 9.04 Q 102.73 9.04 102.74 9.04 L 102.74 9.04 L 102.74 9.04 Q 102.75 9.03 102.76 9.03 L 102.76 9.03 L 102.76 9.03 Q 102.83 9.03 102.94 9.09 L 102.94 9.09 L 102.94 9.09 Q 103.05 9.16 103.07 9.44 L 103.07 9.44 L 103.07 9.44 Q 103.26 9.84 103.43 9.84 L 103.43 9.84 L 103.43 9.84 Q 103.5 9.84 103.59 9.81 L 103.59 9.81 L 103.59 9.81 Q 103.68 9.77 103.77 9.62 L 103.77 9.62 L 103.77 9.62 Q 103.92 9.34 103.92 8.88 L 103.92 8.88 L 103.92 8.88 Q 103.92 8.33 103.64 7.36 L 103.64 7.36 L 103.64 7.35 L 103.64 7.35 Q 103.61 7.28 103.59 7.19 L 103.59 7.19 L 103.59 7.19 Q 103.57 7.1 103.54 7.01 L 103.54 7.01 L 103.54 7.01 Q 103.49 7.18 103.45 7.36 L 103.45 7.36 L 103.45 7.36 Q 103.4 7.53 103.35 7.7 L 103.35 7.7 L 103.35 7.71 L 103.35 7.71 Q 103.32 7.77 103.28 7.88 L 103.28 7.88 L 103.28 7.88 Q 103.24 7.99 103.17 8.1 L 103.17 8.1 L 103.17 8.1 Q 103.1 8.2 103 8.28 L 103 8.28 L 103 8.28 Q 102.9 8.36 102.76 8.36 L 102.76 8.36 L 102.76 8.36 Q 102.65 8.36 102.55 8.3 L 102.55 8.3 L 102.55 8.3 Q 102.4 8.23 102.45 8.08 L 102.45 8.08 L 102.45 8.08 Q 102.55 7.69 102.65 7.29 L 102.65 7.29 L 102.65 7.29 Q 102.75 6.9 102.84 6.52 L 102.84 6.52 L 102.84 6.52 Q 102.96 6.15 103 5.72 L 103 5.72 L 103 5.72 Q 103.04 5.29 103.04 4.82 L 103.04 4.82 L 103.04 4.82 Q 103.04 4.54 103.19 4.38 L 103.19 4.38 L 103.19 4.38 Q 103.35 4.21 103.63 4.21 L 103.63 4.21 L 103.63 4.21 Q 103.84 4.21 103.97 4.27 L 103.97 4.27 L 103.97 4.27 Q 104.1 4.33 104.17 4.4 L 104.17 4.4 L 104.17 4.4 Q 104.23 4.48 104.25 4.56 L 104.25 4.56 L 104.25 4.56 Q 104.27 4.63 104.27 4.69 L 104.27 4.69 L 104.27 4.69 Q 104.27 4.72 104.26 4.79 L 104.26 4.79 L 104.26 4.79 Q 104.24 4.86 104.19 5.07 L 104.19 5.07 L 104.19 5.07 Q 104.12 5.35 104.12 5.49 Z M 108.49 2.66 L 108.49 2.66 L 108.49 2.66 Q 108.68 2.69 108.68 2.87 L 108.68 2.87 L 108.68 2.97 L 108.68 2.97 Q 108.68 3.04 108.64 3.09 L 108.64 3.09 L 108.64 3.09 Q 108.6 3.15 108.46 3.21 L 108.46 3.21 L 108.46 3.21 Q 108.32 3.26 107.83 3.35 L 107.83 3.35 L 107.83 3.35 Q 107.51 3.42 107.3 3.43 L 107.3 3.43 L 107.3 3.43 Q 107.09 3.44 106.93 3.44 L 106.93 3.44 L 106.5 3.47 L 106.5 3.47 Q 106.47 3.67 106.44 4.09 L 106.44 4.09 L 106.44 4.09 Q 106.4 4.52 106.33 5.15 L 106.33 5.15 L 106.33 5.15 Q 106.27 5.68 106.25 6.02 L 106.25 6.02 L 106.25 6.02 Q 106.22 6.36 106.2 6.55 L 106.2 6.55 L 106.2 6.55 Q 106.18 6.75 106.17 6.83 L 106.17 6.83 L 106.17 6.83 Q 106.16 6.92 106.16 6.94 L 106.16 6.94 L 106.16 6.94 Q 106.16 7.62 106.17 8.03 L 106.17 8.03 L 106.17 8.03 Q 106.18 8.44 106.19 8.6 L 106.19 8.6 L 106.19 8.6 Q 106.23 9.04 106.31 9.18 L 106.31 9.18 L 106.31 9.18 Q 106.39 9.32 106.41 9.32 L 106.41 9.32 L 106.41 9.32 Q 106.47 9.3 106.53 9.23 L 106.53 9.23 L 106.53 9.23 Q 106.58 9.16 106.66 9.03 L 106.66 9.03 L 106.66 9.03 Q 106.74 8.9 106.85 8.67 L 106.85 8.67 L 106.85 8.67 Q 107 8.29 107.18 7.71 L 107.18 7.71 L 107.18 7.71 Q 107.35 7.13 107.53 6.36 L 107.53 6.36 L 107.53 6.36 Q 107.58 6.17 107.62 6.05 L 107.62 6.05 L 107.62 6.05 Q 107.66 5.92 107.69 5.82 L 107.69 5.82 L 107.69 5.82 Q 107.72 5.75 107.78 5.64 L 107.78 5.64 L 107.78 5.64 Q 107.84 5.53 107.98 5.53 L 107.98 5.53 L 107.98 5.53 Q 108.11 5.53 108.22 5.62 L 108.22 5.62 L 108.22 5.62 Q 108.33 5.71 108.33 5.95 L 108.33 5.95 L 108.33 5.95 Q 108.33 6.22 108.21 6.75 L 108.21 6.75 L 108.21 6.75 Q 108.08 7.29 107.8 8.13 L 107.8 8.13 L 107.8 8.13 Q 107.44 9.21 107.09 9.72 L 107.09 9.72 L 107.09 9.72 Q 106.75 10.23 106.37 10.23 L 106.37 10.23 L 106.37 10.23 Q 105.84 10.23 105.52 9.42 L 105.52 9.42 L 105.52 9.42 Q 105.24 8.69 105.24 7.62 L 105.24 7.62 L 105.24 7.62 Q 105.24 7.27 105.33 6.27 L 105.33 6.27 L 105.33 6.27 Q 105.42 5.28 105.62 3.5 L 105.62 3.5 L 105.62 3.5 Q 105.49 3.53 105.38 3.49 L 105.38 3.49 L 105.38 3.49 Q 105.27 3.46 105.22 3.43 L 105.22 3.43 L 105.22 3.43 Q 105.2 3.42 105.15 3.37 L 105.15 3.37 L 105.15 3.37 Q 105.11 3.33 105 3.29 L 105 3.29 L 105 3.29 Q 104.8 3.22 104.76 3.12 L 104.76 3.12 L 104.76 3.12 Q 104.71 3.01 104.71 2.94 L 104.71 2.94 L 104.71 2.94 Q 104.71 2.9 104.76 2.79 L 104.76 2.79 L 104.76 2.79 Q 104.8 2.69 105.08 2.63 L 105.08 2.63 L 105.08 2.63 Q 105.17 2.62 105.22 2.61 L 105.22 2.61 L 105.22 2.61 Q 105.28 2.6 105.34 2.6 L 105.34 2.6 L 105.34 2.6 Q 105.39 2.59 105.47 2.58 L 105.47 2.58 L 105.47 2.58 Q 105.55 2.58 105.67 2.56 L 105.67 2.56 L 105.67 2.56 Q 105.69 2.41 105.7 2.18 L 105.7 2.18 L 105.7 2.18 Q 105.71 1.96 105.73 1.67 L 105.73 1.67 L 105.66 1.43 L 105.66 1.43 Q 105.66 1.34 105.67 1.3 L 105.67 1.3 L 105.67 1.3 Q 105.78 1.08 106.02 1.08 L 106.02 1.08 L 106.02 1.08 Q 106.27 1.08 106.74 1.37 L 106.74 1.37 L 106.74 1.37 Q 106.82 1.44 106.82 1.54 L 106.82 1.54 L 106.82 1.86 L 106.82 1.9 L 106.82 1.9 Q 106.79 2.06 106.76 2.22 L 106.76 2.22 L 106.76 2.22 Q 106.72 2.38 106.68 2.58 L 106.68 2.58 L 106.68 2.58 Q 106.78 2.58 106.8 2.58 L 106.8 2.58 L 106.8 2.58 Q 106.82 2.58 106.83 2.58 L 106.83 2.58 L 106.83 2.58 Q 106.85 2.59 106.9 2.6 L 106.9 2.6 L 106.9 2.6 Q 106.96 2.6 107.16 2.6 L 107.16 2.6 L 107.16 2.6 Q 107.34 2.6 107.44 2.61 L 107.44 2.61 L 107.44 2.61 Q 107.55 2.62 107.67 2.63 L 107.67 2.63 L 107.67 2.63 Q 107.79 2.63 107.97 2.64 L 107.97 2.64 L 107.97 2.64 Q 108.15 2.65 108.49 2.66 Z M 111.06 5.49 L 111.06 5.49 L 111.06 5.49 Q 111.24 5.49 111.23 5.59 L 111.23 5.59 L 111.23 5.59 Q 111.22 5.7 111.22 5.87 L 111.22 5.87 L 111.22 5.87 Q 111.22 5.89 111.21 5.96 L 111.21 5.96 L 111.21 5.96 Q 111.2 6.02 111.17 6.13 L 111.17 6.13 L 111.17 6.13 Q 111.15 6.24 111.1 6.44 L 111.1 6.44 L 111.1 6.44 Q 111.06 6.64 110.98 6.93 L 110.98 6.93 L 110.98 6.93 Q 110.71 8.01 110.4 8.83 L 110.4 8.83 L 110.4 8.83 Q 110.25 9.24 110.1 9.53 L 110.1 9.53 L 110.1 9.53 Q 109.96 9.81 109.82 10.01 L 109.82 10.01 L 109.82 10.01 Q 109.44 10.54 108.86 10.54 L 108.86 10.54 L 108.86 10.54 Q 108.22 10.54 107.76 9.87 L 107.76 9.87 L 107.76 9.87 Q 107.34 9.24 107.34 8.34 L 107.34 8.34 L 107.34 8.34 Q 107.34 7.62 107.44 6.87 L 107.44 6.87 L 107.44 6.87 Q 107.55 6.13 107.72 5.54 L 107.72 5.54 L 107.72 5.54 Q 107.77 5.33 107.85 5.11 L 107.85 5.11 L 107.85 5.11 Q 107.93 4.89 108.04 4.7 L 108.04 4.7 L 108.04 4.7 Q 108.15 4.51 108.29 4.39 L 108.29 4.39 L 108.29 4.39 Q 108.43 4.27 108.63 4.27 L 108.63 4.27 L 108.63 4.27 Q 109.02 4.27 109.35 4.56 L 109.35 4.56 L 109.35 4.56 Q 109.51 4.72 109.61 4.94 L 109.61 4.94 L 109.61 4.94 Q 109.7 5.17 109.7 5.33 L 109.7 5.33 L 109.7 5.33 Q 109.7 5.61 109.65 5.95 L 109.65 5.95 L 109.65 5.95 Q 109.59 6.29 109.51 6.62 L 109.51 6.62 L 109.51 6.62 Q 109.42 6.94 109.32 7.22 L 109.32 7.22 L 109.32 7.22 Q 109.21 7.49 109.1 7.66 L 109.1 7.66 L 109.1 7.66 Q 109.03 7.78 108.91 7.91 L 108.91 7.91 L 108.91 7.91 Q 108.78 8.04 108.65 8.11 L 108.65 8.11 L 108.65 8.11 Q 108.51 8.19 108.4 8.2 L 108.4 8.2 L 108.4 8.2 Q 108.28 8.2 108.19 8.09 L 108.19 8.09 L 108.19 8.09 Q 108.16 8.2 108.18 8.39 L 108.18 8.39 L 108.18 8.39 Q 108.19 8.57 108.22 8.74 L 108.22 8.74 L 108.22 8.74 Q 108.25 8.92 108.29 9.07 L 108.29 9.07 L 108.29 9.07 Q 108.33 9.23 108.36 9.3 L 108.36 9.3 L 108.36 9.3 Q 108.47 9.53 108.65 9.65 L 108.65 9.65 L 108.65 9.65 Q 108.84 9.77 108.91 9.77 L 108.91 9.77 L 108.91 9.77 Q 109.05 9.77 109.18 9.56 L 109.18 9.56 L 109.18 9.56 Q 109.31 9.35 109.52 9.03 L 109.52 9.03 L 109.52 9.03 Q 109.76 8.65 110.05 7.97 L 110.05 7.97 L 110.05 7.97 Q 110.35 7.28 110.59 6.5 L 110.59 6.5 L 110.59 6.5 Q 110.63 6.34 110.66 6.2 L 110.66 6.2 L 110.66 6.2 Q 110.7 6.05 110.74 5.89 L 110.74 5.89 L 110.74 5.89 Q 110.81 5.49 111.06 5.49 Z M 108.86 5.19 L 108.86 5.19 L 108.86 5.19 Q 108.75 5.5 108.66 5.75 L 108.66 5.75 L 108.66 5.75 Q 108.57 5.99 108.49 6.22 L 108.49 6.22 L 108.49 6.22 Q 108.4 6.45 108.35 6.69 L 108.35 6.69 L 108.35 6.69 Q 108.29 6.93 108.28 7.22 L 108.28 7.22 L 108.28 7.22 Q 108.46 7.21 108.59 6.97 L 108.59 6.97 L 108.59 6.97 Q 108.72 6.73 108.77 6.54 L 108.77 6.54 L 108.77 6.54 Q 108.82 6.26 108.89 5.97 L 108.89 5.97 L 108.89 5.97 Q 108.95 5.68 108.95 5.38 L 108.95 5.38 L 108.95 5.38 Q 108.95 5.31 108.93 5.2 L 108.93 5.2 L 108.93 5.2 Q 108.91 5.1 108.86 5.19 Z M 117.08 5.43 L 117.08 5.43 L 117.08 5.43 Q 117.19 5.43 117.29 5.52 L 117.29 5.52 L 117.29 5.52 Q 117.39 5.6 117.39 5.81 L 117.39 5.81 L 117.39 5.81 Q 117.39 5.85 117.38 5.94 L 117.38 5.94 L 117.38 5.94 Q 117.38 6.02 117.35 6.17 L 117.35 6.17 L 117.35 6.17 Q 117.32 6.33 117.26 6.57 L 117.26 6.57 L 117.26 6.57 Q 117.21 6.8 117.11 7.15 L 117.11 7.15 L 117.11 7.15 Q 116.96 7.67 116.8 8.15 L 116.8 8.15 L 116.8 8.15 Q 116.65 8.62 116.48 9.06 L 116.48 9.06 L 116.48 9.06 Q 116 10.35 115.33 10.35 L 115.33 10.35 L 115.33 10.35 Q 114.55 10.35 114.38 8.89 L 114.38 8.89 L 114.38 8.89 Q 114.37 8.89 114.37 8.88 L 114.37 8.88 L 114.37 8.54 L 114.37 8.54 Q 114.27 8.85 114.21 9.05 L 114.21 9.05 L 114.21 9.05 Q 114.14 9.25 114.1 9.35 L 114.1 9.35 L 114.1 9.35 Q 113.72 10.35 113.2 10.35 L 113.2 10.35 L 113.2 10.35 Q 113.08 10.35 112.95 10.3 L 112.95 10.3 L 112.95 10.3 Q 112.83 10.26 112.72 10.14 L 112.72 10.14 L 112.72 10.14 Q 112.62 10.01 112.55 9.79 L 112.55 9.79 L 112.55 9.79 Q 112.48 9.58 112.48 9.24 L 112.48 9.24 L 112.48 9.24 Q 112.48 9.06 112.56 8.05 L 112.56 8.05 L 112.56 8.05 Q 112.59 7.77 112.6 7.52 L 112.6 7.52 L 112.6 7.52 Q 112.6 7.27 112.62 7.04 L 112.62 7.04 L 112.62 7.04 Q 112.57 7.17 112.53 7.41 L 112.53 7.41 L 112.53 7.41 Q 112.22 8.95 112.1 9.37 L 112.1 9.37 L 112.1 9.37 Q 111.72 10.56 111.13 10.56 L 111.13 10.56 L 111.13 10.56 Q 110.91 10.56 110.78 10.39 L 110.78 10.39 L 110.78 10.39 Q 110.66 10.23 110.59 9.99 L 110.59 9.99 L 110.59 9.99 Q 110.52 9.74 110.5 9.45 L 110.5 9.45 L 110.5 9.45 Q 110.47 9.16 110.47 8.88 L 110.47 8.88 L 110.47 8.88 Q 110.47 8.72 110.48 8.48 L 110.48 8.48 L 110.48 8.48 Q 110.49 8.23 110.5 7.88 L 110.5 7.88 L 110.5 7.88 Q 110.52 7.59 110.52 7.38 L 110.52 7.38 L 110.52 7.38 Q 110.52 7.18 110.52 7.04 L 110.52 7.04 L 110.4 6.73 L 110.4 6.73 Q 110.39 6.72 110.39 6.68 L 110.39 6.68 L 110.39 6.68 Q 110.33 5.85 110.59 5.57 L 110.59 5.57 L 110.59 5.57 Q 110.73 5.43 110.92 5.43 L 110.92 5.43 L 110.92 5.43 Q 111.01 5.43 111.11 5.46 L 111.11 5.46 L 111.11 5.46 Q 111.22 5.49 111.3 5.57 L 111.3 5.57 L 111.3 5.57 Q 111.38 5.66 111.45 5.81 L 111.45 5.81 L 111.45 5.81 Q 111.51 5.96 111.51 6.22 L 111.51 6.22 L 111.51 6.22 Q 111.51 6.8 111.4 7.32 L 111.4 7.32 L 111.4 7.32 Q 111.3 7.76 111.3 8.4 L 111.3 8.4 L 111.3 8.4 Q 111.3 8.55 111.3 8.7 L 111.3 8.7 L 111.3 8.7 Q 111.3 8.85 111.31 8.99 L 111.31 8.99 L 111.31 8.99 Q 111.34 8.89 111.37 8.8 L 111.37 8.8 L 111.37 8.8 Q 111.4 8.71 111.43 8.61 L 111.43 8.61 L 111.43 8.61 Q 111.59 7.69 111.73 7.08 L 111.73 7.08 L 111.73 7.08 Q 111.87 6.47 112.01 6.12 L 112.01 6.12 L 112.01 6.12 Q 112.04 6.05 112.1 5.92 L 112.1 5.92 L 112.1 5.92 Q 112.15 5.78 112.25 5.65 L 112.25 5.65 L 112.25 5.65 Q 112.34 5.52 112.47 5.42 L 112.47 5.42 L 112.47 5.42 Q 112.6 5.32 112.78 5.32 L 112.78 5.32 L 112.78 5.32 Q 112.9 5.32 113.04 5.39 L 113.04 5.39 L 113.04 5.39 Q 113.19 5.46 113.3 5.7 L 113.3 5.7 L 113.3 5.7 Q 113.44 5.98 113.44 6.54 L 113.44 6.54 L 113.44 6.55 L 113.44 6.55 Q 113.37 7.2 113.33 7.71 L 113.33 7.71 L 113.33 7.71 Q 113.29 8.22 113.29 8.6 L 113.29 8.6 L 113.29 8.6 Q 113.29 8.75 113.3 8.84 L 113.3 8.84 L 113.3 8.84 Q 113.3 8.93 113.3 9 L 113.3 9 L 113.3 9 Q 113.39 8.89 113.52 8.54 L 113.52 8.54 L 113.52 8.54 Q 113.65 8.19 113.85 7.45 L 113.85 7.45 L 113.85 7.45 Q 114 6.87 114.09 6.52 L 114.09 6.52 L 114.09 6.52 Q 114.17 6.16 114.21 5.95 L 114.21 5.95 L 114.21 5.95 Q 114.25 5.74 114.25 5.66 L 114.25 5.66 L 114.25 5.66 Q 114.25 5.59 114.25 5.56 L 114.25 5.56 L 114.25 5.49 L 114.25 5.49 Q 114.28 5.39 114.38 5.27 L 114.38 5.27 L 114.38 5.27 Q 114.48 5.15 114.77 5.15 L 114.77 5.15 L 114.77 5.15 Q 115.02 5.15 115.46 5.43 L 115.46 5.43 L 115.46 5.43 Q 115.58 5.52 115.54 5.64 L 115.54 5.64 L 115.54 5.64 Q 115.18 7.39 115.18 8.53 L 115.18 8.53 L 115.18 8.53 Q 115.18 8.85 115.2 9.04 L 115.2 9.04 L 115.2 9.04 Q 115.22 9.23 115.25 9.32 L 115.25 9.32 L 115.25 9.32 Q 115.29 9.44 115.33 9.48 L 115.33 9.48 L 115.33 9.48 Q 115.35 9.48 115.4 9.45 L 115.4 9.45 L 115.4 9.45 Q 115.44 9.42 115.54 9.3 L 115.54 9.3 L 115.54 9.3 Q 115.63 9.18 115.75 8.93 L 115.75 8.93 L 115.75 8.93 Q 115.88 8.67 116.03 8.2 L 116.03 8.2 L 116.03 8.19 L 116.03 8.19 Q 116.05 8.18 116.07 8.09 L 116.07 8.09 L 116.07 8.09 Q 116.1 7.99 116.17 7.77 L 116.17 7.77 L 116.17 7.77 Q 116.23 7.55 116.33 7.15 L 116.33 7.15 L 116.33 7.15 Q 116.44 6.76 116.61 6.15 L 116.61 6.15 L 116.61 6.15 Q 116.63 6.08 116.66 5.99 L 116.66 5.99 L 116.66 5.99 Q 116.68 5.91 116.7 5.82 L 116.7 5.82 L 116.73 5.7 L 116.73 5.68 L 116.73 5.68 Q 116.83 5.43 117.08 5.43 Z"/></g><defs data-v-fde0c5aa=""><!----></defs><g id="1461711d-d119-488d-8e46-ccc7a3afd8a7" fill="#ebc416" stroke="none" transform="matrix(1.14725, 0, 0, 1.14725, 92.6373, 45.7779)" data-v-fde0c5aa=""><path d="M 80 60 a 20.05 20.05 0 0 0 -3.608 0.343 l -4.851 -16.756 C 74.149 42.661 75.5 40.319 75.5 38 a 5.84 5.84 0 0 0 -1.711 -4.164 C 72.951 32.998 71.44 32 69 32 h -6 a 2 2 0 0 0 0 4 h 6 c 0.849 0 1.526 0.229 1.961 0.664 c 0.348 0.348 0.539 0.822 0.539 1.336 c 0 0.967 -0.656 2 -2.5 2 a 2.002 2.002 0 0 0 -1.921 2.556 L 68.944 49 H 38.775 l -1.145 -3.435 a 42.674 42.674 0 0 1 4.856 -1.625 A 2 2 0 0 0 42 40 H 27 a 2 2 0 0 0 -1.715 3.029 c 0.272 0.455 2.782 4.443 6.808 4.443 a 6.04 6.04 0 0 0 1.854 -0.305 l 1.081 3.242 l -6.701 11.431 A 19.836 19.836 0 0 0 20 60 C 8.972 60 0 68.972 0 80 s 8.972 20 20 20 c 10.353 0 18.892 -7.907 19.898 -18 h 2.523 a 4.996 4.996 0 0 0 9.194 -3.916 l 19.79 -20.581 l 1.144 3.951 C 65.204 64.416 60 71.605 60 80 c 0 11.028 8.972 20 20 20 s 20 -8.972 20 -20 s -8.972 -20 -20 -20 Z m -43.291 -4.549 l 6.951 20.853 A 4.989 4.989 0 0 0 42.422 78 h -2.523 c -0.578 -5.799 -3.656 -10.86 -8.124 -14.131 l 4.934 -8.418 Z M 34.851 78 h -11.36 l 5.743 -9.797 A 14.985 14.985 0 0 1 34.851 78 Z M 20 95 c -8.271 0 -15 -6.729 -15 -15 s 6.729 -15 15 -15 c 2.052 0 4.008 0.416 5.792 1.165 l -7.517 12.823 A 2.003 2.003 0 0 0 20 82 h 14.851 c -0.983 7.327 -7.26 13 -14.851 13 Z m 28.722 -19.677 a 4.997 4.997 0 0 0 -1.265 -0.277 L 40.108 53 h 29.994 l 0.02 0.067 l -21.4 22.256 Z M 80 95 c -8.271 0 -15 -6.729 -15 -15 c 0 -6.116 3.686 -11.382 8.948 -13.714 l 4.131 14.27 a 2 2 0 1 0 3.842 -1.112 l -4.129 -14.263 A 15.027 15.027 0 0 1 80 65 c 8.271 0 15 6.729 15 15 s -6.729 15 -15 15 Z"/></g><!----></svg>